<svg xmlns="http://www.w3.org/2000/svg" width="35.171" height="43.964" viewBox="0 0 35.171 43.964"><defs><style>.a{fill:#4d4f5c;}</style></defs><g transform="translate(107 -1674)"><g transform="translate(-107 1674)"><path class="a" d="M27.4,22.2a2.2,2.2,0,1,0-4.4,0h1.465a.733.733,0,0,1,1.465,0Z" transform="translate(-12.009 -6.811)"/><path class="a" d="M37.2,21.465a.733.733,0,0,1,.733.733H39.4a2.2,2.2,0,0,0-4.4,0h1.465A.733.733,0,0,1,37.2,21.465Z" transform="translate(-15.216 -6.811)"/><path class="a" d="M38.255,32.379l-9.005-2.367V27.646a9.542,9.542,0,0,0,5.745-7.386,3.639,3.639,0,0,0,2.315-5.781v-.755a11.724,11.724,0,1,0-23.447,0v.755a3.639,3.639,0,0,0,2.315,5.781,9.553,9.553,0,0,0,5.745,7.386v2.367l-9.013,2.367A6.617,6.617,0,0,0,8,38.761v6.47a.733.733,0,0,0,.733.733H42.438a.733.733,0,0,0,.733-.733v-6.47A6.615,6.615,0,0,0,38.255,32.379ZM36.577,16.655a2.2,2.2,0,0,1-.637,1.553,2.162,2.162,0,0,1-.828.506V14.588A2.206,2.206,0,0,1,36.577,16.655ZM16.06,18.721a2.329,2.329,0,0,1-.821-.506,2.2,2.2,0,0,1,.821-3.627Zm-.711-5.43A10.238,10.238,0,0,1,32.832,6.477a10.118,10.118,0,0,1,2.99,6.814,3.634,3.634,0,0,0-1.443-.3H31.814l-1.978-2.638a.763.763,0,0,0-1.172,0l-1.978,2.638h-2.2l-1.978-2.638a.763.763,0,0,0-1.172,0l-1.978,2.638H16.793A3.664,3.664,0,0,0,15.349,13.291Zm2.176,5.561v-4.4h2.2a.743.743,0,0,0,.586-.293l1.612-2.147,1.612,2.147a.743.743,0,0,0,.586.293h2.931a.743.743,0,0,0,.586-.293l1.612-2.147,1.612,2.147a.743.743,0,0,0,.586.293h2.2v4.4a8.06,8.06,0,0,1-16.12,0Zm5.312,12.434a.743.743,0,0,0,.55-.711V28.115a9.291,9.291,0,0,0,4.4,0v2.462a.743.743,0,0,0,.55.711l1.429.374L25.586,34.79l-4.177-3.129ZM41.706,44.5H9.465V38.761A5.143,5.143,0,0,1,13.283,33.8l6.323-1.663,5.539,4.155a.733.733,0,0,0,.879,0l5.539-4.155L37.881,33.8a5.142,5.142,0,0,1,3.825,4.961Z" transform="translate(-8 -2)"/><path class="a" d="M34.327,29H32.862c0,.182-.78.733-2.2.733s-2.2-.55-2.2-.733H27c0,1.253,1.575,2.2,3.664,2.2S34.327,30.253,34.327,29Z" transform="translate(-13.078 -9.216)"/></g></g></svg>