<svg xmlns="http://www.w3.org/2000/svg" width="18.514" height="18.5" viewBox="0 0 18.514 18.5"><defs><style>.a{fill:#4d4f5c;stroke:#4d4f5c;stroke-width:0.5px;}</style></defs><g transform="translate(0.248 0.251)"><g transform="translate(0.003 0)"><g transform="translate(0 0)"><path class="a" d="M17.932,16.3,16.7,12.7A8.794,8.794,0,1,0,8.8,17.6h.014a8.829,8.829,0,0,0,3.888-.911l3.6,1.236a1.292,1.292,0,0,0,.42.071,1.283,1.283,0,0,0,1.209-1.7Zm-1.06.568a.206.206,0,0,1-.222.051L12.839,15.61a.534.534,0,0,0-.423.033,7.732,7.732,0,1,1,3.23-3.23.534.534,0,0,0-.033.423l1.309,3.811A.206.206,0,0,1,16.871,16.869Z" transform="translate(-0.003 0)"/></g></g><g transform="translate(8.228 12.821)"><path class="a" d="M233.208,362.748a.488.488,0,1,0,.488.488A.494.494,0,0,0,233.208,362.748Z" transform="translate(-232.719 -362.748)"/></g><g transform="translate(6.28 4.761)"><path class="a" d="M174.823,127.674a2.431,2.431,0,0,0-2.428,2.428.488.488,0,1,0,.976,0,1.452,1.452,0,1,1,1.452,1.452.488.488,0,0,0-.488.488v1.991a.488.488,0,1,0,.976,0v-1.552a2.429,2.429,0,0,0-.488-4.808Z" transform="translate(-172.395 -127.674)"/></g></g></svg>