<svg xmlns="http://www.w3.org/2000/svg" width="36.4" height="45.5" viewBox="0 0 36.4 45.5"><defs><style>.a{fill:#4d4f5c;}</style></defs><g transform="translate(-8 -2)"><path class="a" d="M25.275,21A2.275,2.275,0,0,0,23,23.275h1.517a.758.758,0,0,1,1.517,0H27.55A2.275,2.275,0,0,0,25.275,21Z" transform="translate(-3.625 -4.592)"/><path class="a" d="M37.275,22.517a.758.758,0,0,1,.758.758H39.55a2.275,2.275,0,1,0-4.55,0h1.517A.758.758,0,0,1,37.275,22.517Z" transform="translate(-6.525 -4.592)"/><path class="a" d="M39.312,33.441l-9.32-2.449V28.542a9.891,9.891,0,0,0,4.55-3.868v1.593a6.836,6.836,0,0,0,6.825,6.825h1.517a.758.758,0,0,0,.758-.758V26.267A6.832,6.832,0,0,0,38.2,19.586a3.742,3.742,0,0,0,.895-2.419,3.782,3.782,0,0,0-.758-2.252v-.781a12.133,12.133,0,1,0-24.267,0v.781a3.761,3.761,0,0,0,2.4,5.976,9.871,9.871,0,0,0,5.945,7.652v2.449l-9.328,2.449A6.848,6.848,0,0,0,8,40.046v6.7a.758.758,0,0,0,.758.758H43.642a.758.758,0,0,0,.758-.758v-6.7A6.846,6.846,0,0,0,39.312,33.441Zm2.813-7.174v5.308h-.758a5.314,5.314,0,0,1-5.308-5.308V20.958h.758A5.314,5.314,0,0,1,42.125,26.267Zm-4.55-9.1A2.27,2.27,0,0,1,36.058,19.3V15.028a2.411,2.411,0,0,1,.849.523A2.285,2.285,0,0,1,37.575,17.167ZM16.342,19.305a2.275,2.275,0,0,1-.857-3.746,2.351,2.351,0,0,1,.857-.531Zm-.736-5.619a10.6,10.6,0,0,1,21.188,0,3.635,3.635,0,0,0-1.213-.281L30.432,9.727a.745.745,0,0,0-.652-.114L16.933,13.39a3.758,3.758,0,0,0-1.327.3Zm2.252,5.756V14.7l11.989-3.526,4.694,3.344v4.922a8.342,8.342,0,0,1-16.683,0Zm5.5,12.869a.769.769,0,0,0,.569-.736V29.027a9.616,9.616,0,0,0,4.55,0v2.548a.769.769,0,0,0,.569.736l2.427.637a5.308,5.308,0,0,1-10.541,0ZM42.884,45.984H37.166A4.542,4.542,0,0,0,33.783,38.4v1.517a3.033,3.033,0,1,1,0,6.067H18.617a3.033,3.033,0,1,1,0-6.067V38.4a4.542,4.542,0,0,0-3.382,7.583H9.517V40.046a5.323,5.323,0,0,1,3.951-5.134l5.991-1.577a6.814,6.814,0,0,0,13.483,0l5.983,1.577a5.321,5.321,0,0,1,3.959,5.134Z" transform="translate(0 0)"/><path class="a" d="M33.55,30H32.033a.758.758,0,1,1-1.517,0H29a2.275,2.275,0,0,0,4.55,0Z" transform="translate(-5.075 -6.767)"/></g></svg>