<svg xmlns="http://www.w3.org/2000/svg" width="20.758" height="20.76" viewBox="0 0 20.758 20.76"><defs><style>.a{fill:#4d4f5c;stroke:#4d4f5c;stroke-width:0.5px;}</style></defs><g transform="translate(-31.038 3665.966)"><g transform="translate(31.288 -3665.714)"><g transform="translate(0 0.001)"><path class="a" d="M19.386,16.983l-4.319-1.4a.979.979,0,0,0-.32-.052h-.061l-.912-1.215a.338.338,0,0,0-.228-.132.294.294,0,0,0-.043,0v-.006h-.338V13.1a3.488,3.488,0,0,0,1.351-2.754V7.573a.333.333,0,0,0,.166-.043.338.338,0,0,0,.172-.294V4.563l1.688-.685V4.39a.675.675,0,0,0-.675.675V7.091a.675.675,0,0,0,.675.675h.675a.675.675,0,0,0,.675-.675V5.065a.675.675,0,0,0-.675-.675V3.377a.338.338,0,0,0-.2-.308L10.268.03a.338.338,0,0,0-.277,0L3.238,3.069a.338.338,0,0,0,.011.621L5.4,4.563V7.236a.338.338,0,0,0,.338.338v2.775A3.487,3.487,0,0,0,7.09,13.1v1.078H6.752v.006a.294.294,0,0,0-.043,0,.338.338,0,0,0-.228.132l-.912,1.215H5.51a.967.967,0,0,0-.313.05L.851,16.99A1.339,1.339,0,0,0,0,18.243v1.678a.338.338,0,0,0,.338.338H19.92a.338.338,0,0,0,.338-.338V18.243A1.345,1.345,0,0,0,19.386,16.983ZM17.219,5.065V7.091h-.675V5.065ZM13.445,15l.616.823-2.568,2.283-.858-.859Zm-3.316,1.787L7.765,14.9V13.516a3.467,3.467,0,0,0,1.469.328h1.789a3.467,3.467,0,0,0,1.469-.328V14.9ZM5.69,3.043a.338.338,0,0,0-.288.334v.457L4.235,3.362,10.129.71l5.894,2.652-1.167.473V3.377a.338.338,0,0,0-.286-.334L10.18,2.368a.326.326,0,0,0-.1,0ZM6.07,4.39a.323.323,0,0,0,.007-.054V3.666l4.052-.623,4.052.623v.669a.323.323,0,0,0,.007.054H14.18V6.7a4.178,4.178,0,0,0-1.519-.28,3.844,3.844,0,0,0-2.346.747,2.384,2.384,0,0,0-.187.16c-.058-.055-.12-.108-.186-.159A3.843,3.843,0,0,0,7.6,6.415a4.178,4.178,0,0,0-1.519.28V4.39Zm.344,5.959V7.3A3.507,3.507,0,0,1,7.6,7.091a3.157,3.157,0,0,1,1.929.6,1.767,1.767,0,0,1,.333.334.338.338,0,0,0,.54,0,1.773,1.773,0,0,1,.333-.335,3.158,3.158,0,0,1,1.93-.6,3.507,3.507,0,0,1,1.182.206v3.053a2.823,2.823,0,0,1-2.819,2.819H9.234A2.823,2.823,0,0,1,6.415,10.349ZM6.814,15l2.809,2.248-.858.859L6.2,15.823Zm12.769,4.583H.675v-1.34a.663.663,0,0,1,.405-.618l4.331-1.4a.3.3,0,0,1,.1-.015h.1l2.943,2.616a.338.338,0,0,0,.463-.014L10.129,17.7l1.112,1.112a.338.338,0,0,0,.463.014l2.943-2.616h.1a.311.311,0,0,1,.105.017l4.305,1.394a.667.667,0,0,1,.424.625Z" transform="translate(0 -0.001)"/></g></g></g></svg>