<svg xmlns="http://www.w3.org/2000/svg" width="16.762" height="25.453" viewBox="0 0 16.762 25.453"><defs><style>.a{fill:#4d4f5c;stroke:#4d4f5c;stroke-width:0.5px;}</style></defs><g transform="translate(-209.488 3659.25)"><g transform="translate(209.738 -3659)"><g transform="translate(0 0)"><path class="a" d="M93.145,6.406a2.421,2.421,0,0,0-1.725-.717H89.83V1.523A1.557,1.557,0,0,0,89.449.47,1.311,1.311,0,0,0,88.441,0H83.021a1.311,1.311,0,0,0-1.008.47,1.557,1.557,0,0,0-.381,1.053V5.667h-1.59a2.382,2.382,0,0,0-1.725.717A2.421,2.421,0,0,0,77.6,8.109V20.272A2.382,2.382,0,0,0,78.317,22a2.423,2.423,0,0,0,1.3.672v.515a1.759,1.759,0,0,0,1.77,1.77h.067a1.759,1.759,0,0,0,1.77-1.77v-.47H88.24v.47a1.759,1.759,0,0,0,1.77,1.77h.067a1.745,1.745,0,0,0,1.232-.493l.022-.022a1.778,1.778,0,0,0,.515-1.254v-.515a2.594,2.594,0,0,0,1.3-.672,2.421,2.421,0,0,0,.717-1.725V8.131A2.382,2.382,0,0,0,93.145,6.406ZM82.506,1.523a.68.68,0,0,1,.179-.47A.4.4,0,0,1,83.021.9h5.421a.476.476,0,0,1,.336.157.68.68,0,0,1,.179.47V5.667h-1.03V2.957a1.379,1.379,0,0,0-.2-.762.794.794,0,0,0-.694-.426h-2.6a.794.794,0,0,0-.694.426,1.379,1.379,0,0,0-.2.762V5.69h-1.03Zm1.926,1.434a.65.65,0,0,1,.067-.314h2.464a.56.56,0,0,1,.067.291V5.667h-2.6ZM82.326,23.228a.813.813,0,0,1-.269.627.9.9,0,0,1-.627.269h-.067a.813.813,0,0,1-.627-.269.9.9,0,0,1-.269-.627v-.47h1.859Zm8.669,0h0a.813.813,0,0,1-.269.627l-.022.022a.865.865,0,0,1-.6.246h-.067a.813.813,0,0,1-.627-.269.9.9,0,0,1-.269-.627v-.47h1.859Zm2.016-2.934a1.5,1.5,0,0,1-.47,1.1,1.543,1.543,0,0,1-1.1.47H80.019a1.5,1.5,0,0,1-1.1-.47,1.543,1.543,0,0,1-.47-1.1V8.131a1.5,1.5,0,0,1,.47-1.1,1.543,1.543,0,0,1,1.1-.47H91.4a1.569,1.569,0,0,1,1.142.47,1.543,1.543,0,0,1,.47,1.1Z" transform="translate(-77.6 0)"/></g></g></g></svg>