<svg xmlns="http://www.w3.org/2000/svg" width="23.623" height="16.874" viewBox="0 0 23.623 16.874"><defs><style>.a{fill:#4d4f5c;}</style></defs><g transform="translate(401.877 3667.231)"><g transform="translate(-1236 311)"><g transform="translate(775 -4061)"><path class="a" d="M20.437,28.124a14.009,14.009,0,0,1-7.225-2.145A2.524,2.524,0,0,1,12,23.81V18.844a.844.844,0,1,1,1.687,0V23.81a.846.846,0,0,0,.386.721,11.527,11.527,0,0,0,12.724,0,.843.843,0,0,0,.388-.721V18.844a.844.844,0,1,1,1.687,0V23.81a2.524,2.524,0,0,1-1.212,2.17A14.009,14.009,0,0,1,20.437,28.124Z" transform="translate(50.498 71.519)"/><path class="a" d="M21.812,25.812a.845.845,0,0,1-.354-.078L10.489,20.672a.844.844,0,0,1,0-1.532l10.968-5.062a.839.839,0,0,1,.709,0L33.134,19.14a.844.844,0,0,1,0,1.532L22.166,25.734a.845.845,0,0,1-.354.078Zm-8.955-5.906,8.955,4.132,8.955-4.132-8.955-4.132Z" transform="translate(49.123 68.769)"/></g></g></g></svg>