<svg xmlns="http://www.w3.org/2000/svg" width="36.5" height="36.503" viewBox="0 0 36.5 36.503"><defs><style>.a{fill:#4d4f5c;stroke:#4d4f5c;stroke-width:0.5px;}</style></defs><g transform="translate(-31.038 3665.967)"><g transform="translate(31.288 -3665.713)"><g transform="translate(0 0)"><path class="a" d="M34.451,30.18l-7.675-2.488a1.74,1.74,0,0,0-.568-.092H26.1l-1.62-2.16a.6.6,0,0,0-.4-.235.522.522,0,0,0-.076.006V25.2h-.6V23.284a6.2,6.2,0,0,0,2.4-4.894V13.457a.592.592,0,0,0,.3-.077.6.6,0,0,0,.3-.522V8.108l3-1.217V7.8A1.2,1.2,0,0,0,28.2,9v3.6a1.2,1.2,0,0,0,1.2,1.2h1.2a1.2,1.2,0,0,0,1.2-1.2V9a1.2,1.2,0,0,0-1.2-1.2V6a.6.6,0,0,0-.353-.547l-12-5.4a.6.6,0,0,0-.492,0l-12,5.4a.6.6,0,0,0,.02,1.1L9.6,8.108v4.75a.6.6,0,0,0,.6.6V18.39a6.2,6.2,0,0,0,2.4,4.894V25.2H12v.011a.522.522,0,0,0-.076-.006.6.6,0,0,0-.4.235L9.9,27.6H9.792a1.718,1.718,0,0,0-.557.089l-7.722,2.5A2.38,2.38,0,0,0,0,32.418V35.4a.6.6,0,0,0,.6.6H35.4a.6.6,0,0,0,.6-.6V32.418A2.39,2.39,0,0,0,34.451,30.18ZM30.6,9v3.6H29.4V9ZM23.893,26.655l1.095,1.463-4.564,4.057L18.9,30.65ZM18,29.832l-4.2-3.36V24.018a6.161,6.161,0,0,0,2.61.583h3.18a6.161,6.161,0,0,0,2.61-.583v2.454ZM10.111,5.408A.6.6,0,0,0,9.6,6v.813l-2.074-.84L18,1.26,28.474,5.973l-2.074.84V6a.6.6,0,0,0-.509-.593l-7.8-1.2a.58.58,0,0,0-.18,0ZM10.788,7.8a.574.574,0,0,0,.012-.1V6.515L18,5.408l7.2,1.108V7.7a.574.574,0,0,0,.012.1H25.2v4.1a7.425,7.425,0,0,0-2.7-.5,6.831,6.831,0,0,0-4.168,1.328,4.236,4.236,0,0,0-.332.284c-.1-.1-.212-.191-.331-.283A6.829,6.829,0,0,0,13.5,11.4a7.425,7.425,0,0,0-2.7.5V7.8ZM11.4,18.39V12.966a6.232,6.232,0,0,1,2.1-.365,5.611,5.611,0,0,1,3.428,1.072,3.139,3.139,0,0,1,.591.594.6.6,0,0,0,.96,0,3.15,3.15,0,0,1,.592-.6A5.612,5.612,0,0,1,22.5,12.6a6.232,6.232,0,0,1,2.1.365V18.39a5.016,5.016,0,0,1-5.01,5.01H16.41A5.016,5.016,0,0,1,11.4,18.39Zm.709,8.265L17.1,30.65l-1.524,1.526-4.564-4.057ZM34.8,34.8H1.2V32.418a1.178,1.178,0,0,1,.72-1.1l7.7-2.494a.533.533,0,0,1,.175-.026h.18l5.23,4.648a.6.6,0,0,0,.823-.024L18,31.449l1.976,1.976a.6.6,0,0,0,.823.024l5.23-4.648h.18a.552.552,0,0,1,.187.031l7.651,2.477a1.186,1.186,0,0,1,.754,1.11Z" transform="translate(0 -0.001)"/></g></g></g></svg>