<svg xmlns="http://www.w3.org/2000/svg" width="13.68" height="19.719" viewBox="0 0 13.68 19.719"><defs><style>.a{fill:#4d4f5c;stroke:#4d4f5c;stroke-width:0.5px;}</style></defs><g transform="translate(-43.75 -384.75)"><g transform="translate(-36.333 385)"><g transform="translate(80.333)"><path class="a" d="M92.951,0H80.9a.563.563,0,0,0-.563.563V18.645a.563.563,0,0,0,.961.4l5.63-5.63,5.629,5.63a.563.563,0,0,0,.961-.4V.563A.563.563,0,0,0,92.951,0ZM86.923,12.055a.563.563,0,0,0-.4.165l-5.067,5.067V1.125H92.388V17.286L87.321,12.22A.563.563,0,0,0,86.923,12.055Z" transform="translate(-80.333)"/></g></g></g></svg>