<svg xmlns="http://www.w3.org/2000/svg" width="20.452" height="19.174" viewBox="0 0 20.452 19.174"><defs><style>.a{fill:#4d4f5c;}</style></defs><g transform="translate(0 -16)"><g transform="translate(4.833 18.397)"><path class="a" d="M131.186,76h-2.4a2.993,2.993,0,0,0-2.4,1.2A2.993,2.993,0,0,0,124,76h-2.4a.6.6,0,0,0-.6.6v7.19a.6.6,0,0,0,.6.6h3.6a.6.6,0,0,1,.6.6.6.6,0,0,0,1.2,0,.6.6,0,0,1,.6-.6h3.6a.6.6,0,0,0,.6-.6V76.6A.6.6,0,0,0,131.186,76Zm-5.393,7.293a1.79,1.79,0,0,0-.6-.1h-3V77.2H124a1.8,1.8,0,0,1,1.8,1.8Zm4.793-.1h-3a1.79,1.79,0,0,0-.6.1V79a1.8,1.8,0,0,1,1.8-1.8h1.8Z" transform="translate(-121 -76)"/></g><g transform="translate(0 16)"><g transform="translate(0 0)"><path class="a" d="M18.655,16H1.8A1.8,1.8,0,0,0,0,17.8V30.98a1.8,1.8,0,0,0,1.8,1.8H8.058l-.6,1.2H6.631a.6.6,0,0,0,0,1.2h7.19a.6.6,0,0,0,0-1.2h-.828l-.6-1.2h6.261a1.8,1.8,0,0,0,1.8-1.8V17.8A1.8,1.8,0,0,0,18.655,16ZM8.8,33.976l.6-1.2h1.656l.6,1.2Zm10.455-3a.6.6,0,0,1-.6.6H1.8a.6.6,0,0,1-.6-.6v-.6H19.254Zm0-1.8H1.2V17.8a.6.6,0,0,1,.6-.6H18.655a.6.6,0,0,1,.6.6Z" transform="translate(0 -16)"/></g></g></g></svg>