<svg xmlns="http://www.w3.org/2000/svg" width="19.152" height="15.491" viewBox="0 0 19.152 15.491"><defs><style>.a{fill:#4d4f5c;stroke-width:0.2px;}</style></defs><g transform="translate(-41 -329)"><g transform="translate(41 329)"><path class="a" d="M18.509,30.484H17.167v-1.39a.643.643,0,0,0-.547-.636,9.868,9.868,0,0,0-2.938.088,6.6,6.6,0,0,0-4.106,2.3,6.6,6.6,0,0,0-4.106-2.3,9.871,9.871,0,0,0-2.938-.088.643.643,0,0,0-.547.636v1.39H.643A.643.643,0,0,0,0,31.127v12.11a.643.643,0,0,0,.854.607c.048-.017,4.864-1.66,8.455-.022a.642.642,0,0,0,.533,0c3.581-1.633,8.407.006,8.455.022a.643.643,0,0,0,.854-.607V31.127A.643.643,0,0,0,18.509,30.484ZM1.285,42.378V31.77h.7v8.559a.643.643,0,0,0,.737.636,7.761,7.761,0,0,1,4.867,1.011A15.647,15.647,0,0,0,1.285,42.378ZM8.933,41.4A6.925,6.925,0,0,0,5.47,39.781a10.086,10.086,0,0,0-1.791-.158c-.148,0-.285,0-.408.008V29.685h0c1.235-.056,4.24.076,5.663,2.488Zm1.285-9.222c1.418-2.4,4.427-2.54,5.663-2.487v9.945a10.188,10.188,0,0,0-2.2.15A6.924,6.924,0,0,0,10.219,41.4V32.173Zm1.342,9.8a7.76,7.76,0,0,1,4.868-1.012.643.643,0,0,0,.738-.636V31.77h.7V42.378A15.644,15.644,0,0,0,11.561,41.976Z" transform="translate(0 -28.39)"/></g></g></svg>