<svg xmlns="http://www.w3.org/2000/svg" width="20.661" height="15.693" viewBox="0 0 20.661 15.693"><defs><style>.a{fill:#4d4f5c;stroke:#4d4f5c;stroke-width:0.2px;}</style></defs><path class="a" d="M20,15.036A13.239,13.239,0,0,0,7.451,3.438V1.99C7.451.89,6.851.5,6.338.5a1.63,1.63,0,0,0-1.126.563L.683,5.592a2.34,2.34,0,0,0,0,3.305l4.529,4.529a1.63,1.63,0,0,0,1.126.563c.513,0,1.112-.39,1.112-1.49V10.95a11.489,11.489,0,0,1,11.491,4.5A.586.586,0,0,0,20,15.036Zm-4.512-4.054A12.674,12.674,0,0,0,6.73,9.907a.586.586,0,0,0-.451.57V12.5a1.25,1.25,0,0,1-.026.274,1.236,1.236,0,0,1-.212-.175L1.512,8.069a1.167,1.167,0,0,1,0-1.648L6.041,1.891a1.243,1.243,0,0,1,.212-.175,1.252,1.252,0,0,1,.026.274V4.011a.586.586,0,0,0,.586.586,12.074,12.074,0,0,1,11.507,8.445A12.755,12.755,0,0,0,15.484,10.982Zm0,0" transform="translate(0.408 -0.25)"/></svg>