<svg xmlns="http://www.w3.org/2000/svg" width="21.623" height="21.608" viewBox="0 0 21.623 21.608"><defs><style>.a{fill:#4d4f5c;stroke:#707070;stroke-width:0.5px;}</style></defs><g transform="translate(0.254 0.25)"><g transform="translate(0.004)"><g transform="translate(7.462)"><path class="a" d="M184.092,6.184a3.092,3.092,0,1,1,3.092-3.092A3.1,3.1,0,0,1,184.092,6.184Zm0-4.947a1.855,1.855,0,1,0,1.855,1.855A1.857,1.857,0,0,0,184.092,1.237Z" transform="translate(-181)"/></g><g transform="translate(0 13.028)"><path class="a" d="M.418,320.652a3.092,3.092,0,1,1,4.224,1.132,3.1,3.1,0,0,1-4.224-1.132Zm1.75-3.153a1.855,1.855,0,1,0,2.534.679A1.857,1.857,0,0,0,2.168,317.5Z" transform="translate(-0.004 -316.015)"/></g><g transform="translate(14.923 13.028)"><path class="a" d="M363.531,321.784a3.092,3.092,0,1,1,4.224-1.132A3.09,3.09,0,0,1,363.531,321.784Zm-.061-3.605A1.855,1.855,0,1,0,366,317.5,1.854,1.854,0,0,0,363.47,318.178Z" transform="translate(-361.984 -316.015)"/></g></g><g transform="translate(1.296 4.029)"><path class="a" d="M32.579,105.038l-1.235-.068a9.27,9.27,0,0,1,4.181-7.244L36.2,98.76A8.071,8.071,0,0,0,32.579,105.038Z" transform="translate(-31.344 -97.726)"/></g><g transform="translate(14.961 4.029)"><path class="a" d="M366.414,105.038a8.071,8.071,0,0,0-3.624-6.278l.678-1.034a9.27,9.27,0,0,1,4.181,7.244Z" transform="translate(-362.79 -97.726)"/></g><g transform="translate(6.377 19.01)"><path class="a" d="M158.756,463.22a9.179,9.179,0,0,1-4.181-.994l.558-1.1a8.056,8.056,0,0,0,7.246,0l.558,1.1A9.18,9.18,0,0,1,158.756,463.22Z" transform="translate(-154.575 -461.123)"/></g></g></svg>