<svg xmlns="http://www.w3.org/2000/svg" width="15.77" height="15.77" viewBox="0 0 15.77 15.77"><defs><style>.a{fill:#4d4f5c;}</style></defs><path class="a" d="M0,4.682H.955v.924H0v4.62H.955v.924H0v4.62H15.77V11.15h-.955v-.924h.955V5.606h-.955V4.682h.955V0H0ZM14.846,14.846H.924V12.074H14.846Zm-.955-3.7H1.879v-.924H13.891ZM14.846,9.3H.924V6.53H14.846Zm-.955-3.7H1.879V4.682H13.891ZM.924.924H14.846V3.758H.924Z"/><path class="a" d="M61,62h1.039v1.039H61Z" transform="translate(-58.887 -59.852)"/><path class="a" d="M121,62h1.039v1.039H121Z" transform="translate(-117.302 -59.852)"/><path class="a" d="M181,62h1.039v1.039H181Z" transform="translate(-175.468 -59.852)"/><path class="a" d="M301,62h5.2v1.039H301Z" transform="translate(-292.54 -59.852)"/><path class="a" d="M61,242h1.039v1.039H61Z" transform="translate(-58.887 -234.604)"/><path class="a" d="M121,242h1.039v1.039H121Z" transform="translate(-117.302 -234.604)"/><path class="a" d="M181,242h1.039v1.039H181Z" transform="translate(-175.468 -234.604)"/><path class="a" d="M301,242h5.2v1.039H301Z" transform="translate(-292.54 -234.604)"/><path class="a" d="M61,422h1.039v1.039H61Z" transform="translate(-58.887 -409.348)"/><path class="a" d="M121,422h1.039v1.039H121Z" transform="translate(-117.302 -409.348)"/><path class="a" d="M181,422h1.039v1.039H181Z" transform="translate(-175.468 -409.348)"/><path class="a" d="M301,422h5.2v1.039H301Z" transform="translate(-292.54 -409.348)"/></svg>