<svg xmlns="http://www.w3.org/2000/svg" width="16.172" height="21.563" viewBox="0 0 16.172 21.563"><defs><style>.a{fill:#4d4f5c;}</style></defs><g transform="translate(2.695 2.695)"><path class="a" d="M130.7,68.717c-.73,0-1.348-.462-1.348-1.011s.617-1.011,1.348-1.011a1.516,1.516,0,0,1,.962.321.674.674,0,0,0,.852-1.046,2.77,2.77,0,0,0-1.14-.538v-.759a.674.674,0,0,0-1.348,0v.757A2.44,2.44,0,0,0,128,67.706a2.547,2.547,0,0,0,2.7,2.358c.73,0,1.348.462,1.348,1.011s-.617,1.011-1.348,1.011a1.516,1.516,0,0,1-.962-.321.674.674,0,0,0-.852,1.046,2.789,2.789,0,0,0,1.14.539v.757a.674.674,0,1,0,1.348,0V73.35a2.44,2.44,0,0,0,2.022-2.275A2.547,2.547,0,0,0,130.7,68.717Z" transform="translate(-128 -64)"/></g><g transform="translate(0 0)"><path class="a" d="M80.12,5.806a.667.667,0,0,0-.146-.218L74.585.2a.683.683,0,0,0-.477-.2h-8.76A1.35,1.35,0,0,0,64,1.348V20.215a1.35,1.35,0,0,0,1.348,1.348H78.824a1.35,1.35,0,0,0,1.348-1.348V6.065A.672.672,0,0,0,80.12,5.806ZM74.781,2.3l3.09,3.09h-3.09Zm4.043,18.589v-.674H65.348V1.348h8.086V5.391a1.35,1.35,0,0,0,1.348,1.348h4.043V20.215h0Z" transform="translate(-64 0)"/></g><g transform="translate(9.434 9.434)"><g transform="translate(0)"><path class="a" d="M291.369,224h-2.7a.674.674,0,0,0,0,1.348h2.7a.674.674,0,0,0,0-1.348Z" transform="translate(-288 -224)"/></g></g><g transform="translate(9.434 12.129)"><g transform="translate(0)"><path class="a" d="M291.369,288h-2.7a.674.674,0,0,0,0,1.348h2.7a.674.674,0,0,0,0-1.348Z" transform="translate(-288 -288)"/></g></g><g transform="translate(2.695 14.824)"><g transform="translate(0)"><path class="a" d="M138.108,352h-9.434a.674.674,0,1,0,0,1.348h9.434a.674.674,0,0,0,0-1.348Z" transform="translate(-128 -352)"/></g></g><g transform="translate(2.695 17.52)"><g transform="translate(0)"><path class="a" d="M138.108,416h-9.434a.674.674,0,1,0,0,1.348h9.434a.674.674,0,0,0,0-1.348Z" transform="translate(-128 -416)"/></g></g></svg>