<svg xmlns="http://www.w3.org/2000/svg" width="20" height="18.828" viewBox="0 0 20 18.828"><defs><style>.a{fill:#4d4f5c;}</style></defs><path class="a" d="M19.414,0H.586A.586.586,0,0,0,0,.586V13.555a.586.586,0,0,0,.586.586H7.992v1.172H7.825a2.933,2.933,0,0,0-2.93,2.93.586.586,0,0,0,.586.586h9.037a.586.586,0,0,0,.586-.586,2.933,2.933,0,0,0-2.93-2.93h-.167V14.141h7.406A.586.586,0,0,0,20,13.555V.586A.586.586,0,0,0,19.414,0Zm-.586,1.172v9.453H1.172V1.172Zm-5,16.484H6.168a1.761,1.761,0,0,1,1.657-1.172h4.349A1.761,1.761,0,0,1,13.832,17.656Zm-3-2.344H9.164V14.141h1.672ZM1.172,12.969V11.8H18.828v1.172H1.172Z"/><path class="a" d="M67.652,77.438h4.174a.586.586,0,0,0,.586-.586V76.4A2.672,2.672,0,0,0,71.2,74.158a1.813,1.813,0,1,0-2.917,0A2.672,2.672,0,0,0,67.066,76.4v.456A.586.586,0,0,0,67.652,77.438ZM69.1,73.082a.641.641,0,1,1,.641.641A.642.642,0,0,1,69.1,73.082Zm.641,1.813a1.5,1.5,0,0,1,1.5,1.371H68.244A1.5,1.5,0,0,1,69.739,74.9Z" transform="translate(-64.446 -68.485)"/><path class="a" d="M287.465,134.771h5.278a.586.586,0,0,0,0-1.172h-5.278a.586.586,0,0,0,0,1.172Z" transform="translate(-275.673 -128.38)"/><path class="a" d="M287.465,74.771h5.278a.586.586,0,0,0,0-1.172h-5.278a.586.586,0,0,0,0,1.172Z" transform="translate(-275.673 -70.724)"/><path class="a" d="M287.465,194.771h5.278a.586.586,0,0,0,0-1.172h-5.278a.586.586,0,0,0,0,1.172Z" transform="translate(-275.673 -186.037)"/></svg>