<svg xmlns="http://www.w3.org/2000/svg" width="24.441" height="24.441" viewBox="0 0 24.441 24.441"><defs><style>.a{fill:#4d4f5c;stroke:#707070;stroke-width:0.5px;}</style></defs><g transform="translate(0.25 0.25)"><g transform="translate(4.988 4.988)"><path class="a" d="M13.479,23.953H10.486a1.62,1.62,0,0,1-1.5-1.8V20.063a3.464,3.464,0,0,0-1.3-2.594A6.9,6.9,0,0,1,5,11.883,7.1,7.1,0,0,1,11.883,5a7.011,7.011,0,0,1,4.988,2,7.1,7.1,0,0,1,2.095,4.988,6.709,6.709,0,0,1-2.594,5.387,3.642,3.642,0,0,0-1.4,2.793v2.294a1.534,1.534,0,0,1-1.5,1.5ZM11.983,6A6.118,6.118,0,0,0,6,11.883a5.864,5.864,0,0,0,2.294,4.788,4.347,4.347,0,0,1,1.7,3.392v2.095c0,.2,0,.8.5.8h2.993a.471.471,0,0,0,.5-.5V20.163a4.848,4.848,0,0,1,1.8-3.591,5.817,5.817,0,0,0,2.195-4.589,5.963,5.963,0,0,0-1.8-4.289A5.88,5.88,0,0,0,11.983,6Z" transform="translate(-5 -5)"/></g><g transform="translate(8.978 19.951)"><path class="a" d="M14.486,21H9.5a.5.5,0,0,1,0-1h4.988a.5.5,0,0,1,0,1Z" transform="translate(-9 -20)"/></g><g transform="translate(11.472)"><path class="a" d="M12,2.993a.471.471,0,0,1-.5-.5V.5a.5.5,0,0,1,1,0v2A.471.471,0,0,1,12,2.993Z" transform="translate(-11.5 0)"/></g><g transform="translate(18.105 3.442)"><path class="a" d="M18.7,5.794a.6.6,0,0,1-.4-.1.482.482,0,0,1,0-.7l1.4-1.4a.494.494,0,1,1,.7.7L19,5.694a1,1,0,0,1-.3.1Z" transform="translate(-18.15 -3.45)"/></g><g transform="translate(20.948 11.472)"><path class="a" d="M23.494,12.5h-2a.5.5,0,0,1,0-1h2a.5.5,0,1,1,0,1Z" transform="translate(-21 -11.5)"/></g><g transform="translate(18.105 18.205)"><path class="a" d="M20.1,20.594a.6.6,0,0,1-.4-.1l-1.4-1.4a.494.494,0,0,1,.7-.7l1.4,1.4a.482.482,0,0,1,0,.7c0,.1-.1.1-.3.1Z" transform="translate(-18.15 -18.25)"/></g><g transform="translate(3.342 18.205)"><path class="a" d="M3.9,20.594a.6.6,0,0,1-.4-.1.482.482,0,0,1,0-.7l1.4-1.4a.494.494,0,0,1,.7.7l-1.4,1.4A.366.366,0,0,1,3.9,20.594Z" transform="translate(-3.35 -18.25)"/></g><g transform="translate(0 11.472)"><path class="a" d="M2.494,12.5H.5a.5.5,0,0,1,0-1h2a.5.5,0,1,1,0,1Z" transform="translate(0 -11.5)"/></g><g transform="translate(3.342 3.342)"><path class="a" d="M5.3,5.794a.6.6,0,0,1-.4-.1L3.5,4.2a.494.494,0,1,1,.7-.7l1.4,1.4a.482.482,0,0,1,0,.7c-.1.1-.2.2-.3.2Z" transform="translate(-3.35 -3.35)"/></g><g transform="translate(11.472 7.482)"><path class="a" d="M15.989,12.488a.471.471,0,0,1-.5-.5A3.534,3.534,0,0,0,12,8.5a.5.5,0,1,1,0-1,4.47,4.47,0,0,1,4.489,4.489A.471.471,0,0,1,15.989,12.488Z" transform="translate(-11.5 -7.5)"/></g></g></svg>