<svg xmlns="http://www.w3.org/2000/svg" width="21.603" height="17.473" viewBox="0 0 21.603 17.473"><defs><style>.a{fill:#4d4f5c;}</style></defs><g transform="translate(-435 -372)"><path class="a" d="M20.878,30.752H19.364V29.185a.725.725,0,0,0-.618-.717,11.131,11.131,0,0,0-3.314.1A7.443,7.443,0,0,0,10.8,31.16,7.443,7.443,0,0,0,6.17,28.568a11.134,11.134,0,0,0-3.314-.1.725.725,0,0,0-.618.717v1.568H.725A.725.725,0,0,0,0,31.477v13.66a.725.725,0,0,0,.963.685C1.018,45.8,6.45,43.95,10.5,45.8a.725.725,0,0,0,.6,0c4.039-1.842,9.483.006,9.537.025a.725.725,0,0,0,.963-.685V31.477A.725.725,0,0,0,20.878,30.752ZM1.45,44.168V32.2h.789v9.654a.726.726,0,0,0,.831.717,8.754,8.754,0,0,1,5.49,1.14A17.65,17.65,0,0,0,1.45,44.168Zm8.627-1.108A7.811,7.811,0,0,0,6.17,41.239a11.376,11.376,0,0,0-2.021-.178c-.167,0-.321,0-.461.009V29.851h0c1.393-.063,4.783.086,6.387,2.807Zm1.45-10.4c1.6-2.709,4.994-2.865,6.387-2.8V41.07a11.492,11.492,0,0,0-2.481.169,7.811,7.811,0,0,0-3.906,1.821v-10.4ZM13.04,43.714a8.753,8.753,0,0,1,5.491-1.141.725.725,0,0,0,.832-.717V32.2h.789V44.168A17.646,17.646,0,0,0,13.04,43.714Z" transform="translate(435 343.61)"/></g></svg>