<svg width="18" height="12" viewBox="0 0 18 12" fill="none" xmlns="http://www.w3.org/2000/svg">
<path d="M12.7503 5.99996C13.9003 5.99996 14.8253 5.06663 14.8253 3.91663C14.8253 2.76663 13.9003 1.83329 12.7503 1.83329C11.6003 1.83329 10.667 2.76663 10.667 3.91663C10.667 5.06663 11.6003 5.99996 12.7503 5.99996ZM6.50033 5.16663C7.88366 5.16663 8.99199 4.04996 8.99199 2.66663C8.99199 1.28329 7.88366 0.166626 6.50033 0.166626C5.11699 0.166626 4.00033 1.28329 4.00033 2.66663C4.00033 4.04996 5.11699 5.16663 6.50033 5.16663ZM12.7503 7.66663C11.2253 7.66663 8.16699 8.43329 8.16699 9.95829V11.8333H17.3337V9.95829C17.3337 8.43329 14.2753 7.66663 12.7503 7.66663ZM6.50033 6.83329C4.55866 6.83329 0.666992 7.80829 0.666992 9.74996V11.8333H6.50033V9.95829C6.50033 9.24996 6.77533 8.00829 8.47533 7.06663C7.75033 6.91663 7.05033 6.83329 6.50033 6.83329Z" fill="#F3F3F3"/>
</svg>
