<svg width="28" height="25" viewBox="0 0 28 25" fill="none" xmlns="http://www.w3.org/2000/svg">
<path fill-rule="evenodd" clip-rule="evenodd" d="M24.668 0.5H3.33464C1.86797 0.5 0.667969 1.7 0.667969 3.16667V21.8333C0.667969 23.3 1.86797 24.5 3.33464 24.5H24.668C26.1346 24.5 27.3346 23.3 27.3346 21.8333V3.16667C27.3346 1.7 26.1346 0.5 24.668 0.5ZM11.3346 19.1667H4.66797V16.5H11.3346V19.1667ZM11.3346 13.8333H4.66797V11.1667H11.3346V13.8333ZM11.3346 8.5H4.66797V5.83333H11.3346V8.5ZM17.7613 16.5L14.0013 12.7133L15.8813 10.8333L17.7613 12.7267L21.988 8.5L23.8813 10.3933L17.7613 16.5Z" fill="#FE9D2B"/>
</svg>
