<svg width="18" height="10" viewBox="0 0 18 10" fill="none" xmlns="http://www.w3.org/2000/svg">
<path d="M2.24935 5.00065C2.24935 3.57565 3.40768 2.41732 4.83268 2.41732H8.16602V0.833984H4.83268C2.53268 0.833984 0.666016 2.70065 0.666016 5.00065C0.666016 7.30065 2.53268 9.16732 4.83268 9.16732H8.16602V7.58398H4.83268C3.40768 7.58398 2.24935 6.42565 2.24935 5.00065ZM5.66602 5.83398H12.3327V4.16732H5.66602V5.83398ZM13.166 0.833984H9.83268V2.41732H13.166C14.591 2.41732 15.7493 3.57565 15.7493 5.00065C15.7493 6.42565 14.591 7.58398 13.166 7.58398H9.83268V9.16732H13.166C15.466 9.16732 17.3327 7.30065 17.3327 5.00065C17.3327 2.70065 15.466 0.833984 13.166 0.833984Z" fill="#FE9D2B"/>
</svg>
