<svg width="24" height="25" viewBox="0 0 24 25" fill="none" xmlns="http://www.w3.org/2000/svg">
<path d="M0 3.16667V21.8333C0 23.3 1.18667 24.5 2.66667 24.5H21.3333C22.8 24.5 24 23.3 24 21.8333V3.16667C24 1.7 22.8 0.5 21.3333 0.5H2.66667C1.18667 0.5 0 1.7 0 3.16667ZM16 8.5C16 10.7133 14.2133 12.5 12 12.5C9.78667 12.5 8 10.7133 8 8.5C8 6.28667 9.78667 4.5 12 4.5C14.2133 4.5 16 6.28667 16 8.5ZM4 19.1667C4 16.5 9.33333 15.0333 12 15.0333C14.6667 15.0333 20 16.5 20 19.1667V20.5H4V19.1667Z" fill="#FE9D2B"/>
</svg>
