<svg width="30" height="29" viewBox="0 0 30 29" fill="none" xmlns="http://www.w3.org/2000/svg">
<path d="M24.332 0.832031L17.6654 7.4987V22.1654L24.332 16.1654V0.832031ZM0.332031 7.4987V27.032C0.332031 27.3654 0.665365 27.6987 0.998698 27.6987C1.13203 27.6987 1.1987 27.632 1.33203 27.632C3.13203 26.7654 5.73203 26.1654 7.66536 26.1654C10.2654 26.1654 13.0654 26.6987 14.9987 28.1654V7.4987C13.0654 6.03203 10.2654 5.4987 7.66536 5.4987C5.06536 5.4987 2.26536 6.03203 0.332031 7.4987ZM29.6654 25.4987V7.4987C28.8654 6.8987 27.9987 6.4987 26.9987 6.16536V24.1654C25.532 23.6987 23.932 23.4987 22.332 23.4987C20.0654 23.4987 16.7987 24.3654 14.9987 25.4987V28.1654C16.7987 27.032 20.0654 26.1654 22.332 26.1654C24.532 26.1654 26.7987 26.5654 28.6654 27.5654C28.7987 27.632 28.8654 27.632 28.9987 27.632C29.332 27.632 29.6654 27.2987 29.6654 26.9654V25.4987Z" fill="#FE9D2B"/>
</svg>
