<svg xmlns="http://www.w3.org/2000/svg" width="206.532" height="165.226" viewBox="0 0 206.532 165.226"><defs><style>.a{fill:rgba(0,0,0,0.8);}</style></defs><g transform="translate(0 -48)"><g transform="translate(0 48)"><path class="a" d="M34.422,48H6.884A6.887,6.887,0,0,0,0,54.884V82.422a6.884,6.884,0,0,0,13.769,0V61.769H34.422a6.884,6.884,0,0,0,0-13.769Z" transform="translate(0 -48)"/></g><g transform="translate(165.226 171.919)"><path class="a" d="M418.422,336a6.887,6.887,0,0,0-6.884,6.884v20.653H390.884a6.884,6.884,0,0,0,0,13.769h27.538a6.887,6.887,0,0,0,6.884-6.884V342.884A6.887,6.887,0,0,0,418.422,336Z" transform="translate(-384 -336)"/></g><g transform="translate(165.226 48)"><path class="a" d="M418.422,48H390.884a6.884,6.884,0,0,0,0,13.769h20.653V82.422a6.884,6.884,0,1,0,13.769,0V54.884A6.887,6.887,0,0,0,418.422,48Z" transform="translate(-384 -48)"/></g><g transform="translate(0 171.919)"><path class="a" d="M34.422,363.538H13.769V342.884a6.884,6.884,0,0,0-13.769,0v27.538a6.887,6.887,0,0,0,6.884,6.884H34.422a6.884,6.884,0,1,0,0-13.769Z" transform="translate(0 -336)"/></g><g transform="translate(27.538 75.538)"><rect class="a" width="14" height="110" transform="translate(-0.005 0.462)"/></g><g transform="translate(55.075 75.538)"><rect class="a" width="13" height="82" transform="translate(0.457 0.462)"/></g><g transform="translate(82.613 75.538)"><rect class="a" width="14" height="82" transform="translate(-0.081 0.462)"/></g><g transform="translate(110.151 75.538)"><rect class="a" width="13" height="110" transform="translate(0.382 0.462)"/></g><g transform="translate(137.688 75.538)"><rect class="a" width="14" height="82" transform="translate(-0.156 0.462)"/></g><g transform="translate(165.226 75.538)"><rect class="a" width="13" height="110" transform="translate(0.307 0.462)"/></g><g transform="translate(55.075 171.919)"><rect class="a" width="13" height="14" transform="translate(0.457 0.081)"/></g><g transform="translate(82.613 171.919)"><rect class="a" width="14" height="14" transform="translate(-0.081 0.081)"/></g><g transform="translate(137.688 171.919)"><rect class="a" width="14" height="14" transform="translate(-0.156 0.081)"/></g></g></svg>