<svg xmlns="http://www.w3.org/2000/svg" width="13.68" height="19.719" viewBox="0 0 13.68 19.719"><defs><style>.a,.b{fill:#bc6c42;}.a{stroke:#bc6c42;stroke-width:0.5px;}</style></defs><g transform="translate(-790.25 -525.25)"><path class="a" d="M92.951,0H80.9a.563.563,0,0,0-.563.563V18.645a.563.563,0,0,0,.961.4l5.63-5.63,5.629,5.63a.563.563,0,0,0,.961-.4V.563A.563.563,0,0,0,92.951,0ZM86.923,12.055a.563.563,0,0,0-.4.165l-5.067,5.067V1.125H92.388V17.286L87.321,12.22A.563.563,0,0,0,86.923,12.055Z" transform="translate(710.167 525.5)"/><g transform="translate(735.655 526.582)"><g transform="translate(55.296 -0.303)"><path class="b" d="M65.7-.048H56.86A1.568,1.568,0,0,0,55.3,1.516V15.161a.978.978,0,0,0,.547.88.991.991,0,0,0,1.036-.117l.02-.02,4.379-3.695L65.657,15.9l.02.02a1,1,0,0,0,.606.215.891.891,0,0,0,.43-.117.978.978,0,0,0,.547-.88V1.516A1.568,1.568,0,0,0,65.7-.048Z" transform="translate(-55.296 0.303)"/></g></g></g></svg>