
<svg xmlns="http://www.w3.org/2000/svg" width="45.244" height="45.244" viewBox="0 0 45.244 45.244"><defs><style>.a{fill:#bc6c42;}</style></defs><g transform="translate(-443 -423)"><g transform="translate(443 423)"><path class="a" d="M44.49,43.736H39.966V18.852a.754.754,0,0,0-.754-.754H28.655V.754A.754.754,0,0,0,27.9,0H8.295a.754.754,0,0,0-.754.754V43.736H.754a.754.754,0,0,0,0,1.508H44.49a.754.754,0,0,0,0-1.508Zm-28.655,0H12.819V36.949a.754.754,0,0,1,.754-.754h1.508a.754.754,0,0,1,.754.754Zm3.016-24.884V43.736H17.344V36.949a2.262,2.262,0,0,0-2.262-2.262H13.573a2.262,2.262,0,0,0-2.262,2.262v6.787H9.049V1.508h18.1V18.1H19.606A.754.754,0,0,0,18.852,18.852ZM38.458,43.736H20.36V19.606h18.1Z" transform="translate(0 0)"/><path class="a" d="M205.278,112h-4.524a.754.754,0,0,0-.754.754v4.524a.754.754,0,0,0,.754.754h4.524a.754.754,0,0,0,.754-.754v-4.524A.754.754,0,0,0,205.278,112Zm-.754,4.524h-3.016v-3.016h3.016Z" transform="translate(-181.148 -101.443)"/><path class="a" d="M205.278,32h-4.524a.754.754,0,0,0-.754.754v4.524a.754.754,0,0,0,.754.754h4.524a.754.754,0,0,0,.754-.754V32.754A.754.754,0,0,0,205.278,32Zm-.754,4.524h-3.016V33.508h3.016Z" transform="translate(-181.148 -28.984)"/><path class="a" d="M125.278,112h-4.524a.754.754,0,0,0-.754.754v4.524a.754.754,0,0,0,.754.754h4.524a.754.754,0,0,0,.754-.754v-4.524A.754.754,0,0,0,125.278,112Zm-.754,4.524h-3.016v-3.016h3.016Z" transform="translate(-108.689 -101.443)"/><path class="a" d="M125.278,32h-4.524a.754.754,0,0,0-.754.754v4.524a.754.754,0,0,0,.754.754h4.524a.754.754,0,0,0,.754-.754V32.754A.754.754,0,0,0,125.278,32Zm-.754,4.524h-3.016V33.508h3.016Z" transform="translate(-108.689 -28.984)"/><path class="a" d="M125.278,192h-4.524a.754.754,0,0,0-.754.754v4.524a.754.754,0,0,0,.754.754h4.524a.754.754,0,0,0,.754-.754v-4.524A.754.754,0,0,0,125.278,192Zm-.754,4.524h-3.016v-3.016h3.016Z" transform="translate(-108.689 -173.902)"/><path class="a" d="M125.278,272h-4.524a.754.754,0,0,0-.754.754v4.525a.754.754,0,0,0,.754.754h4.524a.754.754,0,0,0,.754-.754v-4.525A.754.754,0,0,0,125.278,272Zm-.754,4.524h-3.016v-3.016h3.016Z" transform="translate(-108.689 -246.362)"/><path class="a" d="M320.754,310.033h4.525a.754.754,0,0,0,.754-.754v-4.524a.754.754,0,0,0-.754-.754h-4.525a.754.754,0,0,0-.754.754v4.524A.754.754,0,0,0,320.754,310.033Zm.754-4.524h3.016v3.016h-3.016Z" transform="translate(-289.837 -275.345)"/><path class="a" d="M320.754,230.033h4.525a.754.754,0,0,0,.754-.754v-4.524a.754.754,0,0,0-.754-.754h-4.525a.754.754,0,0,0-.754.754v4.524A.754.754,0,0,0,320.754,230.033Zm.754-4.524h3.016v3.016h-3.016Z" transform="translate(-289.837 -202.886)"/><path class="a" d="M320.754,390.033h4.525a.754.754,0,0,0,.754-.754v-4.524a.754.754,0,0,0-.754-.754h-4.525a.754.754,0,0,0-.754.754v4.524A.754.754,0,0,0,320.754,390.033Zm.754-4.525h3.016v3.016h-3.016Z" transform="translate(-289.837 -347.805)"/><path class="a" d="M240.754,310.033h4.524a.754.754,0,0,0,.754-.754v-4.524a.754.754,0,0,0-.754-.754h-4.524a.754.754,0,0,0-.754.754v4.524A.754.754,0,0,0,240.754,310.033Zm.754-4.524h3.016v3.016h-3.016Z" transform="translate(-217.378 -275.345)"/><path class="a" d="M240.754,230.033h4.524a.754.754,0,0,0,.754-.754v-4.524a.754.754,0,0,0-.754-.754h-4.524a.754.754,0,0,0-.754.754v4.524A.754.754,0,0,0,240.754,230.033Zm.754-4.524h3.016v3.016h-3.016Z" transform="translate(-217.378 -202.886)"/><path class="a" d="M240.754,390.033h4.524a.754.754,0,0,0,.754-.754v-4.524a.754.754,0,0,0-.754-.754h-4.524a.754.754,0,0,0-.754.754v4.524A.754.754,0,0,0,240.754,390.033Zm.754-4.525h3.016v3.016h-3.016Z" transform="translate(-217.378 -347.805)"/></g></g></svg>