<svg xmlns="http://www.w3.org/2000/svg" width="25.244" height="25.244" viewBox="0 0 25.244 25.244"><defs><style>.a{opacity:0.8;}.b{fill:#000;}</style></defs><g class="a" transform="translate(-443 -423)"><g transform="translate(443 423)"><path class="b" d="M24.823,24.4H22.3V10.518a.421.421,0,0,0-.421-.421h-5.89V.421A.421.421,0,0,0,15.567,0H4.628a.421.421,0,0,0-.421.421V24.4H.421a.421.421,0,0,0,0,.841h24.4a.421.421,0,1,0,0-.841Zm-15.988,0H7.153V20.616a.421.421,0,0,1,.421-.421h.841a.421.421,0,0,1,.421.421Zm1.683-13.884V24.4H9.677V20.616a1.262,1.262,0,0,0-1.262-1.262H7.573a1.262,1.262,0,0,0-1.262,1.262V24.4H5.049V.841h10.1V10.1H10.939A.421.421,0,0,0,10.518,10.518ZM21.458,24.4H11.36V10.939h10.1Z" transform="translate(0 0)"/><path class="b" d="M202.945,112h-2.524a.421.421,0,0,0-.421.421v2.524a.421.421,0,0,0,.421.421h2.524a.421.421,0,0,0,.421-.421v-2.524A.421.421,0,0,0,202.945,112Zm-.421,2.524h-1.683v-1.683h1.683Z" transform="translate(-189.482 -106.11)"/><path class="b" d="M202.945,32h-2.524a.421.421,0,0,0-.421.421v2.524a.421.421,0,0,0,.421.421h2.524a.421.421,0,0,0,.421-.421V32.421A.421.421,0,0,0,202.945,32Zm-.421,2.524h-1.683V32.841h1.683Z" transform="translate(-189.482 -30.317)"/><path class="b" d="M122.945,112h-2.524a.421.421,0,0,0-.421.421v2.524a.421.421,0,0,0,.421.421h2.524a.421.421,0,0,0,.421-.421v-2.524A.421.421,0,0,0,122.945,112Zm-.421,2.524h-1.683v-1.683h1.683Z" transform="translate(-113.689 -106.11)"/><path class="b" d="M122.945,32h-2.524a.421.421,0,0,0-.421.421v2.524a.421.421,0,0,0,.421.421h2.524a.421.421,0,0,0,.421-.421V32.421A.421.421,0,0,0,122.945,32Zm-.421,2.524h-1.683V32.841h1.683Z" transform="translate(-113.689 -30.317)"/><path class="b" d="M122.945,192h-2.524a.421.421,0,0,0-.421.421v2.524a.421.421,0,0,0,.421.421h2.524a.421.421,0,0,0,.421-.421v-2.524A.421.421,0,0,0,122.945,192Zm-.421,2.524h-1.683v-1.683h1.683Z" transform="translate(-113.689 -181.902)"/><path class="b" d="M122.945,272h-2.524a.421.421,0,0,0-.421.421v2.524a.421.421,0,0,0,.421.421h2.524a.421.421,0,0,0,.421-.421v-2.524A.421.421,0,0,0,122.945,272Zm-.421,2.524h-1.683v-1.683h1.683Z" transform="translate(-113.689 -257.695)"/><path class="b" d="M320.421,307.366h2.524a.421.421,0,0,0,.421-.421v-2.524a.421.421,0,0,0-.421-.421h-2.524a.421.421,0,0,0-.421.421v2.524A.421.421,0,0,0,320.421,307.366Zm.421-2.524h1.683v1.683h-1.683Z" transform="translate(-303.171 -288.012)"/><path class="b" d="M320.421,227.366h2.524a.421.421,0,0,0,.421-.421v-2.524a.421.421,0,0,0-.421-.421h-2.524a.421.421,0,0,0-.421.421v2.524A.421.421,0,0,0,320.421,227.366Zm.421-2.524h1.683v1.683h-1.683Z" transform="translate(-303.171 -212.219)"/><path class="b" d="M320.421,387.366h2.524a.421.421,0,0,0,.421-.421v-2.524a.421.421,0,0,0-.421-.421h-2.524a.421.421,0,0,0-.421.421v2.524A.421.421,0,0,0,320.421,387.366Zm.421-2.524h1.683v1.683h-1.683Z" transform="translate(-303.171 -363.805)"/><path class="b" d="M240.421,307.366h2.524a.421.421,0,0,0,.421-.421v-2.524a.421.421,0,0,0-.421-.421h-2.524a.421.421,0,0,0-.421.421v2.524A.421.421,0,0,0,240.421,307.366Zm.421-2.524h1.683v1.683h-1.683Z" transform="translate(-227.378 -288.012)"/><path class="b" d="M240.421,227.366h2.524a.421.421,0,0,0,.421-.421v-2.524a.421.421,0,0,0-.421-.421h-2.524a.421.421,0,0,0-.421.421v2.524A.421.421,0,0,0,240.421,227.366Zm.421-2.524h1.683v1.683h-1.683Z" transform="translate(-227.378 -212.219)"/><path class="b" d="M240.421,387.366h2.524a.421.421,0,0,0,.421-.421v-2.524a.421.421,0,0,0-.421-.421h-2.524a.421.421,0,0,0-.421.421v2.524A.421.421,0,0,0,240.421,387.366Zm.421-2.524h1.683v1.683h-1.683Z" transform="translate(-227.378 -363.805)"/></g></g></svg>