<svg xmlns="http://www.w3.org/2000/svg" width="29" height="38" viewBox="0 0 29 38"><defs><style>.a{fill:#bc6c42;stroke-width:0.25px;}.a,.b{stroke:#bc6c42;}.b,.d{fill:none;}.c{stroke:none;}</style></defs><g transform="translate(-1002 -761)"><path class="a" d="M14.469.391A4.368,4.368,0,0,0,10.4,3.249H2.843a.318.318,0,0,0-.3.318l-.072,10.68H.312a.3.3,0,0,0-.312.29v1.355a2.391,2.391,0,0,0,2.283,2.382v.007h9.4v-.009c.076,0,.107.009.156.009h.007a2.391,2.391,0,0,0,2.388-2.391V9.037c.076,0,.157.006.235.006A4.465,4.465,0,0,0,17.4,7.893a4.184,4.184,0,0,0,1.391-3.176A4.33,4.33,0,0,0,14.469.391ZM2.4,17.672h0A1.791,1.791,0,0,1,.609,15.889V14.856H9.438v1.029a2.388,2.388,0,0,0,.7,1.692c.032.032.072.057.105.095Zm11.225-1.783a1.782,1.782,0,0,1-1.779,1.783h-.006a1.8,1.8,0,0,1-1.792-1.787V14.537a.281.281,0,0,0-.291-.29H3.075l.07-10.389H10.23a4.574,4.574,0,0,0-.083.846,4.293,4.293,0,0,0,.367,1.742H7.638a.3.3,0,1,0,0,.609h3.206a4.3,4.3,0,0,0,2.78,1.907Zm.845-7.454a3.714,3.714,0,1,1,3.714-3.714A3.713,3.713,0,0,1,14.469,8.435Zm0,0" transform="translate(1006.747 770.609)"/><g class="b" transform="translate(1002 761)"><rect class="c" width="29" height="38" rx="4"/><rect class="d" x="0.5" y="0.5" width="28" height="37" rx="3.5"/></g></g></svg>