<svg xmlns="http://www.w3.org/2000/svg" width="15.156" height="19.897" viewBox="0 0 15.156 19.897"><defs><style>.a{fill:#bc6c42;}</style></defs><g transform="translate(-61)"><path class="a" d="M62.749,19.9H74.407a1.751,1.751,0,0,0,1.749-1.749V5.829H72.076a1.751,1.751,0,0,1-1.749-1.749V0H62.749A1.751,1.751,0,0,0,61,1.749v16.4A1.751,1.751,0,0,0,62.749,19.9ZM65.081,8.2h7a.583.583,0,0,1,0,1.166h-7a.583.583,0,0,1,0-1.166Zm0,2.332h7a.583.583,0,0,1,0,1.166h-7a.583.583,0,0,1,0-1.166Zm0,2.332h7a.583.583,0,0,1,0,1.166h-7a.583.583,0,0,1,0-1.166Zm0,2.332h4.663a.583.583,0,1,1,0,1.166H65.081a.583.583,0,0,1,0-1.166Z"/><path class="a" d="M331.583,13.111h3.739L331,8.789v3.739A.583.583,0,0,0,331.583,13.111Z" transform="translate(-259.507 -8.447)"/></g></svg>