<svg width="24" height="28" viewBox="0 0 24 28" fill="none" xmlns="http://www.w3.org/2000/svg">
<path d="M18.04 14.2463L16.6267 12.833L10.12 19.3397L7.29333 16.513L5.88 17.9263L10.12 22.1663L18.04 14.2463ZM21.3333 3.49967H20V0.833008H17.3333V3.49967H6.66667V0.833008H4V3.49967H2.66667C1.18667 3.49967 0.0133333 4.69967 0.0133333 6.16634L0 24.833C0 26.2997 1.18667 27.4997 2.66667 27.4997H21.3333C22.8 27.4997 24 26.2997 24 24.833V6.16634C24 4.69967 22.8 3.49967 21.3333 3.49967ZM21.3333 24.833H2.66667V10.1663H21.3333V24.833Z" fill="#FE9D2B"/>
</svg>
