<svg width="20" height="28" viewBox="0 0 20 28" fill="none" xmlns="http://www.w3.org/2000/svg">
<path d="M9.99935 0.666504C4.83935 0.666504 0.666016 4.83984 0.666016 9.99984C0.666016 12.3198 1.33268 14.4932 2.54602 16.4532C3.81268 18.5065 5.47935 20.2665 6.75935 22.3198C7.38602 23.3198 7.83935 24.2532 8.31935 25.3332C8.66602 26.0665 8.94602 27.3332 9.99935 27.3332C11.0527 27.3332 11.3327 26.0665 11.666 25.3332C12.1593 24.2532 12.5993 23.3198 13.226 22.3198C14.506 20.2798 16.1727 18.5198 17.4394 16.4532C18.666 14.4932 19.3327 12.3198 19.3327 9.99984C19.3327 4.83984 15.1593 0.666504 9.99935 0.666504ZM9.99935 13.6665C8.15935 13.6665 6.66602 12.1732 6.66602 10.3332C6.66602 8.49317 8.15935 6.99984 9.99935 6.99984C11.8393 6.99984 13.3327 8.49317 13.3327 10.3332C13.3327 12.1732 11.8393 13.6665 9.99935 13.6665Z" fill="#FE9D2B"/>
</svg>
