<svg width="30" height="20" viewBox="0 0 30 20" fill="none" xmlns="http://www.w3.org/2000/svg">
<path d="M20.334 8.66699C22.5473 8.66699 24.3207 6.88033 24.3207 4.66699C24.3207 2.45366 22.5473 0.666992 20.334 0.666992C18.1206 0.666992 16.334 2.45366 16.334 4.66699C16.334 6.88033 18.1206 8.66699 20.334 8.66699ZM9.66732 8.66699C11.8807 8.66699 13.654 6.88033 13.654 4.66699C13.654 2.45366 11.8807 0.666992 9.66732 0.666992C7.45398 0.666992 5.66732 2.45366 5.66732 4.66699C5.66732 6.88033 7.45398 8.66699 9.66732 8.66699ZM9.66732 11.3337C6.56065 11.3337 0.333984 12.8937 0.333984 16.0003V19.3337H19.0007V16.0003C19.0007 12.8937 12.774 11.3337 9.66732 11.3337ZM20.334 11.3337C19.9473 11.3337 19.5073 11.3603 19.0406 11.4003C20.5873 12.5203 21.6673 14.027 21.6673 16.0003V19.3337H29.6673V16.0003C29.6673 12.8937 23.4406 11.3337 20.334 11.3337Z" fill="#FE9D2B"/>
</svg>
