<svg xmlns="http://www.w3.org/2000/svg" width="16" height="20.41" viewBox="0 0 16 20.41"><defs><style>.a{fill:#bc6c42;}.b{fill:#fff;}</style></defs><g transform="translate(3584 -6225)"><rect class="a" width="16" height="20.41" rx="2" transform="translate(-3584 6225)"/><g transform="translate(-3580.84 6230.688)"><path class="b" d="M5.625,16.022a.322.322,0,0,0-.341.039L2.145,18.572H.645A.646.646,0,0,0,0,19.217V21.8a.646.646,0,0,0,.645.645h1.5l3.138,2.511a.323.323,0,0,0,.342.038.322.322,0,0,0,.183-.29V16.313A.324.324,0,0,0,5.625,16.022Z" transform="translate(0 -15.99)"/><path class="b" d="M342.3,122.345a.323.323,0,0,0-.454.459,2.574,2.574,0,0,1,0,3.645.322.322,0,1,0,.454.458,3.219,3.219,0,0,0,0-4.563Z" transform="translate(-334.86 -120.11)"/><path class="b" d="M387.418,77.218a.323.323,0,0,0-.455.458,3.851,3.851,0,0,1,0,5.465.323.323,0,0,0,.455.458,4.5,4.5,0,0,0,0-6.382Z" transform="translate(-379.066 -75.892)"/></g></g></svg>