<svg width="350" height="406" viewBox="0 0 325 206" fill="none" xmlns="http://www.w3.org/2000/svg">
<g clip-path="url(#clip0_507_10776)">
<path d="M299.692 201.157H295.134L292.965 165.916H299.692V201.157Z" fill="#A0616A"/>
<path d="M291.878 199.861H300.669V205.366H286.344C286.344 204.644 286.487 203.928 286.765 203.26C287.043 202.592 287.451 201.985 287.965 201.474C288.479 200.963 289.089 200.557 289.76 200.28C290.432 200.004 291.152 199.861 291.878 199.861Z" fill="#404040"/>
<path d="M322.432 196.39L318.244 198.18L300.271 164.986L306.452 162.344L322.432 196.39Z" fill="#A0616A"/>
<path d="M314.739 198.268L322.815 194.815L325 199.873L311.84 205.499C311.553 204.835 311.4 204.121 311.39 203.398C311.381 202.675 311.514 201.958 311.784 201.286C312.053 200.615 312.453 200.002 312.96 199.485C313.467 198.967 314.071 198.553 314.739 198.268Z" fill="#404040"/>
<path opacity="0.6" d="M256.051 47.1333H177.082C176.458 47.1326 175.86 46.8857 175.419 46.4469C174.977 46.008 174.729 45.413 174.729 44.7923V2.84104C174.729 2.22038 174.977 1.62534 175.419 1.18646C175.86 0.747586 176.458 0.500716 177.082 0.5H256.051C256.675 0.500716 257.273 0.747586 257.714 1.18646C258.156 1.62534 258.404 2.22038 258.405 2.84104V44.7923C258.404 45.413 258.156 46.008 257.714 46.4469C257.273 46.8857 256.675 47.1326 256.051 47.1333Z" fill="#1492E6"/>
<path d="M190.568 29.8562C195.364 29.8562 199.251 25.9892 199.251 21.2191C199.251 16.449 195.364 12.582 190.568 12.582C185.772 12.582 181.885 16.449 181.885 21.2191C181.885 25.9892 185.772 29.8562 190.568 29.8562Z" fill="white"/>
<path d="M246.482 13.485H211.029C210.677 13.485 210.339 13.3458 210.09 13.0982C209.841 12.8505 209.701 12.5146 209.701 12.1644C209.701 11.8141 209.841 11.4782 210.09 11.2305C210.339 10.9829 210.677 10.8437 211.029 10.8438H246.482C246.834 10.8437 247.172 10.9829 247.421 11.2305C247.67 11.4782 247.809 11.8141 247.809 12.1644C247.809 12.5146 247.67 12.8505 247.421 13.0982C247.172 13.3458 246.834 13.485 246.482 13.485Z" fill="white"/>
<path d="M227.922 19.5221H211.029C210.677 19.5221 210.339 19.3829 210.09 19.1353C209.841 18.8876 209.701 18.5517 209.701 18.2015C209.701 17.8512 209.841 17.5153 210.09 17.2677C210.339 17.02 210.677 16.8809 211.029 16.8809H227.922C228.274 16.8809 228.612 17.02 228.861 17.2677C229.11 17.5153 229.25 17.8512 229.25 18.2015C229.25 18.5517 229.11 18.8876 228.861 19.1353C228.612 19.3829 228.274 19.5221 227.922 19.5221Z" fill="white"/>
<path d="M239.82 25.5572H211.029C210.677 25.5572 210.339 25.4181 210.09 25.1704C209.841 24.9228 209.701 24.5869 209.701 24.2366C209.701 23.8864 209.841 23.5505 210.09 23.3028C210.339 23.0551 210.677 22.916 211.029 22.916H239.82C240.172 22.916 240.51 23.0551 240.759 23.3028C241.008 23.5505 241.147 23.8864 241.147 24.2366C241.147 24.5869 241.008 24.9228 240.759 25.1704C240.51 25.4181 240.172 25.5572 239.82 25.5572Z" fill="white"/>
<path d="M246.482 31.5924H211.029C210.677 31.5924 210.339 31.4532 210.09 31.2056C209.841 30.9579 209.701 30.622 209.701 30.2718C209.701 29.9215 209.841 29.5856 210.09 29.338C210.339 29.0903 210.677 28.9512 211.029 28.9512H246.482C246.834 28.9512 247.172 29.0903 247.421 29.338C247.67 29.5856 247.809 29.9215 247.809 30.2718C247.809 30.622 247.67 30.9579 247.421 31.2056C247.172 31.4532 246.834 31.5924 246.482 31.5924Z" fill="white"/>
<path d="M245.371 42.5081H239.501C239.18 42.5087 238.863 42.4463 238.566 42.3247C238.27 42.2031 238.001 42.0246 237.774 41.7993C237.547 41.5741 237.367 41.3066 237.245 41.0121C237.122 40.7176 237.059 40.402 237.059 40.0832C237.059 39.7644 237.122 39.4487 237.245 39.1542C237.367 38.8597 237.547 38.5922 237.774 38.367C238.001 38.1418 238.27 37.9632 238.566 37.8416C238.863 37.72 239.18 37.6577 239.501 37.6582H245.371C246.017 37.6582 246.638 37.9137 247.095 38.3685C247.552 38.8232 247.809 39.44 247.809 40.0832C247.809 40.7263 247.552 41.3431 247.095 41.7979C246.638 42.2526 246.017 42.5081 245.371 42.5081Z" fill="white"/>
<path d="M138.598 51.041H83.4597C83.024 51.0405 82.6063 50.8681 82.2983 50.5617C81.9902 50.2553 81.8169 49.8398 81.8164 49.4064V20.115C81.8169 19.6817 81.9902 19.2662 82.2983 18.9598C82.6063 18.6533 83.024 18.481 83.4597 18.4805H138.598C139.033 18.481 139.451 18.6533 139.759 18.9598C140.067 19.2662 140.241 19.6817 140.241 20.115V49.4064C140.241 49.8398 140.067 50.2553 139.759 50.5617C139.451 50.8681 139.033 51.0405 138.598 51.041Z" fill="#353535"/>
<path d="M92.8773 38.9772C96.2257 38.9772 98.9402 36.2772 98.9402 32.9466C98.9402 29.616 96.2257 26.916 92.8773 26.916C89.5289 26.916 86.8145 29.616 86.8145 32.9466C86.8145 36.2772 89.5289 38.9772 92.8773 38.9772Z" fill="white"/>
<path d="M131.917 27.5473H107.163C106.917 27.5473 106.682 27.4501 106.508 27.2772C106.334 27.1043 106.236 26.8697 106.236 26.6252C106.236 26.3806 106.334 26.1461 106.508 25.9732C106.682 25.8003 106.917 25.7031 107.163 25.7031H131.917C132.163 25.7031 132.399 25.8003 132.573 25.9732C132.747 26.1461 132.844 26.3806 132.844 26.6252C132.844 26.8697 132.747 27.1043 132.573 27.2772C132.399 27.4501 132.163 27.5473 131.917 27.5473Z" fill="white"/>
<path d="M118.959 31.7621H107.163C106.918 31.7616 106.683 31.6643 106.509 31.4914C106.336 31.3185 106.238 31.0843 106.238 30.84C106.238 30.5958 106.336 30.3616 106.509 30.1887C106.683 30.0158 106.918 29.9185 107.163 29.918H118.959C119.204 29.9185 119.44 30.0158 119.613 30.1887C119.786 30.3616 119.884 30.5958 119.884 30.84C119.884 31.0843 119.786 31.3185 119.613 31.4914C119.44 31.6643 119.204 31.7616 118.959 31.7621Z" fill="white"/>
<path d="M127.266 35.975H107.163C106.918 35.9745 106.683 35.8772 106.509 35.7043C106.336 35.5314 106.238 35.2972 106.238 35.0529C106.238 34.8087 106.336 34.5744 106.509 34.4016C106.683 34.2287 106.918 34.1313 107.163 34.1309H127.266C127.512 34.1313 127.747 34.2287 127.92 34.4016C128.094 34.5744 128.191 34.8087 128.191 35.0529C128.191 35.2972 128.094 35.5314 127.92 35.7043C127.747 35.8772 127.512 35.9745 127.266 35.975Z" fill="white"/>
<path d="M131.918 40.1899H107.163C106.918 40.1894 106.683 40.092 106.509 39.9191C106.336 39.7463 106.238 39.512 106.238 39.2678C106.238 39.0235 106.336 38.7893 106.509 38.6164C106.683 38.4435 106.918 38.3462 107.163 38.3457H131.918C132.039 38.3455 132.16 38.3691 132.273 38.4154C132.386 38.4616 132.488 38.5295 132.574 38.6151C132.661 38.7008 132.729 38.8025 132.776 38.9145C132.822 39.0265 132.846 39.1465 132.846 39.2678C132.846 39.389 132.822 39.5091 132.776 39.6211C132.729 39.7331 132.661 39.8348 132.574 39.9204C132.488 40.0061 132.386 40.074 132.273 40.1202C132.16 40.1664 132.039 40.1901 131.918 40.1899Z" fill="white"/>
<path d="M131.141 47.8121H127.042C126.591 47.8121 126.158 47.6337 125.838 47.3162C125.519 46.9987 125.34 46.568 125.34 46.119C125.34 45.6699 125.519 45.2392 125.838 44.9217C126.158 44.6042 126.591 44.4258 127.042 44.4258H131.141C131.592 44.4258 132.025 44.6042 132.344 44.9217C132.664 45.2392 132.843 45.6699 132.843 46.119C132.843 46.568 132.664 46.9987 132.344 47.3162C132.025 47.6337 131.592 47.8121 131.141 47.8121Z" fill="white"/>
<path d="M232.915 96.3987H129.809C128.995 96.3978 128.213 96.0755 127.637 95.5024C127.061 94.9294 126.737 94.1525 126.736 93.3421V38.5683C126.737 37.7579 127.061 36.981 127.637 36.408C128.213 35.835 128.995 35.5127 129.809 35.5117H232.915C233.73 35.5127 234.511 35.835 235.087 36.408C235.663 36.981 235.987 37.7579 235.988 38.5683V93.3421C235.987 94.1525 235.663 94.9294 235.087 95.5024C234.511 96.0755 233.73 96.3978 232.915 96.3987Z" fill="#FE9D2B"/>
<path d="M147.419 73.8411C153.681 73.8411 158.757 68.7922 158.757 62.5641C158.757 56.336 153.681 51.2871 147.419 51.2871C141.158 51.2871 136.082 56.336 136.082 62.5641C136.082 68.7922 141.158 73.8411 147.419 73.8411Z" fill="white"/>
<path d="M220.423 52.4661H174.134C173.674 52.4661 173.233 52.2844 172.908 51.9611C172.583 51.6377 172.4 51.1991 172.4 50.7418C172.4 50.2845 172.583 49.846 172.908 49.5226C173.233 49.1992 173.674 49.0176 174.134 49.0176H220.423C220.651 49.0176 220.876 49.0622 221.086 49.1488C221.297 49.2355 221.488 49.3625 221.649 49.5226C221.81 49.6827 221.938 49.8728 222.025 50.082C222.112 50.2912 222.157 50.5154 222.157 50.7418C222.157 50.9683 222.112 51.1925 222.025 51.4017C221.938 51.6109 221.81 51.801 221.649 51.9611C221.488 52.1212 221.297 52.2482 221.086 52.3348C220.876 52.4215 220.651 52.4661 220.423 52.4661Z" fill="white"/>
<path d="M196.19 60.3489H174.134C173.674 60.3489 173.233 60.1672 172.908 59.8439C172.583 59.5205 172.4 59.0819 172.4 58.6246C172.4 58.1673 172.583 57.7288 172.908 57.4054C173.233 57.0821 173.674 56.9004 174.134 56.9004H196.19C196.65 56.9004 197.091 57.0821 197.416 57.4054C197.741 57.7288 197.924 58.1673 197.924 58.6246C197.924 59.0819 197.741 59.5205 197.416 59.8439C197.091 60.1672 196.65 60.3489 196.19 60.3489Z" fill="white"/>
<path d="M211.725 68.2278H174.134C173.674 68.2278 173.233 68.0461 172.908 67.7228C172.583 67.3994 172.4 66.9608 172.4 66.5035C172.4 66.0462 172.583 65.6077 172.908 65.2843C173.233 64.961 173.674 64.7793 174.134 64.7793H211.725C212.185 64.7793 212.626 64.961 212.951 65.2843C213.276 65.6077 213.458 66.0462 213.458 66.5035C213.458 66.9608 213.276 67.3994 212.951 67.7228C212.626 68.0461 212.185 68.2278 211.725 68.2278Z" fill="white"/>
<path d="M220.423 76.1067H174.134C173.674 76.1067 173.233 75.925 172.908 75.6017C172.583 75.2783 172.4 74.8397 172.4 74.3824C172.4 73.9251 172.583 73.4866 172.908 73.1632C173.233 72.8399 173.674 72.6582 174.134 72.6582H220.423C220.883 72.6582 221.324 72.8399 221.649 73.1632C221.974 73.4866 222.157 73.9251 222.157 74.3824C222.157 74.8397 221.974 75.2783 221.649 75.6017C221.324 75.925 220.883 76.1067 220.423 76.1067Z" fill="white"/>
<path d="M218.974 90.3597H211.31C210.891 90.3601 210.477 90.2785 210.09 90.1196C209.704 89.9607 209.352 89.7276 209.057 89.4335C208.761 89.1395 208.526 88.7903 208.366 88.4059C208.205 88.0216 208.123 87.6096 208.123 87.1935C208.123 86.7774 208.205 86.3655 208.366 85.9811C208.526 85.5967 208.761 85.2476 209.057 84.9535C209.352 84.6595 209.704 84.4263 210.09 84.2674C210.477 84.1085 210.891 84.0269 211.31 84.0273H218.974C219.392 84.0269 219.806 84.1085 220.193 84.2674C220.58 84.4263 220.931 84.6595 221.227 84.9535C221.523 85.2476 221.758 85.5967 221.918 85.9811C222.078 86.3655 222.16 86.7774 222.16 87.1935C222.16 87.6096 222.078 88.0216 221.918 88.4059C221.758 88.7903 221.523 89.1395 221.227 89.4335C220.931 89.7276 220.58 89.9607 220.193 90.1196C219.806 90.2785 219.392 90.3601 218.974 90.3597Z" fill="white"/>
<path d="M323.101 165.969C323.101 165.969 314.066 120.149 312.642 116.287C311.857 114.176 311.34 112.641 311.34 112.641L284.79 114.151L284.573 116.287L280.994 169.874C280.994 169.874 282.259 166.469 283.395 165.843C284.53 165.218 284.411 169.867 284.411 169.867" fill="#404040"/>
<path d="M284.995 114.133H308.233C307.581 111.81 308.233 109.658 309.166 108.006C309.817 106.846 310.637 105.787 311.599 104.865L311.758 104.723L319.878 102.932L320.314 102.837C320.314 102.837 320.379 88.1637 315.157 86.1502C312.288 85.0589 309.593 83.5615 307.154 81.7043C306.914 81.5159 306.62 81.4087 306.314 81.3983L294.916 80.9832C294.565 80.9715 294.222 81.0861 293.95 81.3061C292.066 82.8133 286.073 85.8388 282.851 87.4216C282.285 87.6991 281.848 88.1828 281.632 88.7722C281.415 89.3616 281.435 90.0114 281.687 90.5866C282.974 93.5253 285.16 98.44 285.39 98.44C285.717 98.44 284.995 114.133 284.995 114.133Z" fill="#1492E6"/>
<path d="M300.749 90.335L311.67 118.425C311.67 118.425 304.287 120.118 297.165 111.461L294.595 105.881L288.805 84.6152L300.749 90.335Z" fill="#F6F8FB"/>
<path d="M303.649 75.2976C311.835 75.2976 318.471 68.6967 318.471 60.5541C318.471 52.4115 311.835 45.8105 303.649 45.8105C295.462 45.8105 288.826 52.4115 288.826 60.5541C288.826 68.6967 295.462 75.2976 303.649 75.2976Z" fill="#2F2E41"/>
<path d="M294.245 109.95C294.651 110.455 295.209 110.817 295.838 110.982C296.467 111.147 297.132 111.106 297.736 110.866L305.676 113.957L308.322 108.007L299.375 106.857C299.201 106.466 298.945 106.116 298.625 105.831C298.304 105.546 297.927 105.332 297.516 105.203C297.106 105.075 296.673 105.035 296.246 105.086C295.819 105.137 295.408 105.278 295.041 105.5C294.673 105.722 294.357 106.019 294.114 106.372C293.871 106.725 293.706 107.125 293.631 107.546C293.555 107.967 293.571 108.399 293.677 108.814C293.783 109.228 293.977 109.616 294.245 109.95Z" fill="#A0616A"/>
<path d="M301.4 78.8513C306.639 78.8513 310.886 74.627 310.886 69.4159C310.886 64.2049 306.639 59.9805 301.4 59.9805C296.161 59.9805 291.914 64.2049 291.914 69.4159C291.914 74.627 296.161 78.8513 301.4 78.8513Z" fill="#A0616A"/>
<path d="M314.741 63.1652C309.696 65.8971 304.018 67.2617 298.276 67.1221C296.077 67.0653 293.654 66.6674 292.261 64.9735C290.689 63.0621 291.083 60.0757 292.599 58.1204C294.115 56.1652 296.486 55.0629 298.852 54.3153C301.091 53.6081 303.489 53.1525 305.785 53.647C306.996 53.9079 308.137 54.4253 309.13 55.1639C310.122 55.9025 310.943 56.8451 311.537 57.9275C312.13 59.0099 312.482 60.2067 312.569 61.4366C312.656 62.6665 312.476 63.9006 312.041 65.055" fill="#2F2E41"/>
<path d="M314.133 58.395C318.726 58.395 322.448 54.6921 322.448 50.1243C322.448 45.5565 318.726 41.8535 314.133 41.8535C309.541 41.8535 305.818 45.5565 305.818 50.1243C305.818 54.6921 309.541 58.395 314.133 58.395Z" fill="#2F2E41"/>
<path d="M317.11 98.9395L320.31 102.838L320.962 113.421C320.962 113.421 321.802 118.81 315.609 117.512C309.416 116.214 301.445 113.69 301.445 113.69C301.445 113.69 305.687 107.575 303.794 105.824L312.672 108.681C312.672 108.681 314.173 108.355 312.997 107.057C311.821 105.76 311.614 103.42 311.614 103.42L317.11 98.9395Z" fill="#1492E6"/>
<path d="M300.679 108.102C300.062 108.307 299.396 108.31 298.777 108.109C298.159 107.909 297.623 107.515 297.247 106.988L288.891 105.299L289.913 98.873L298.056 102.736C298.416 102.501 298.821 102.345 299.246 102.278C299.671 102.212 300.105 102.236 300.52 102.349C300.934 102.463 301.32 102.663 301.65 102.936C301.981 103.209 302.249 103.55 302.437 103.935C302.625 104.319 302.729 104.739 302.741 105.167C302.752 105.594 302.672 106.02 302.506 106.414C302.34 106.808 302.09 107.163 301.775 107.454C301.46 107.745 301.086 107.966 300.679 108.102Z" fill="#A0616A"/>
<path d="M289.65 93.2417C289.65 93.2417 288.2 95.095 286.504 95.5506C284.808 96.0062 285.891 97.0897 285.891 97.0897L294.908 99.4804C292.362 99.9306 292.59 107.356 292.59 107.356C292.59 107.356 284.518 105.175 278.608 102.923C272.697 100.671 276.342 96.5978 276.342 96.5978L282.662 88.06L287.477 86.5117L289.65 93.2417Z" fill="#1492E6"/>
<path d="M13.1699 194.108L17.5201 195.968L26.8015 180.163L20.3812 177.418L13.1699 194.108Z" fill="#FFB8B8"/>
<path d="M24.1738 203.572L10.5017 197.728L12.7719 192.473L21.3591 196.144C22.7077 196.721 23.7708 197.807 24.3146 199.163C24.8584 200.519 24.8383 202.034 24.2587 203.376L24.1738 203.572L24.1738 203.572Z" fill="#404040"/>
<path d="M43.1758 199.434H47.911L50.1644 181.268H43.1758V199.434Z" fill="#FFB8B8"/>
<path d="M57.043 203.809H42.1617V198.09H51.5084C52.9762 198.09 54.384 198.67 55.4219 199.702C56.4599 200.734 57.043 202.135 57.043 203.595V203.809L57.043 203.809Z" fill="#404040"/>
<g opacity="0.1">
<path opacity="0.1" d="M14.3516 60.8375L14.6191 60.8951C14.5409 60.8418 14.4449 60.8211 14.3516 60.8375Z" fill="url(#paint0_linear_507_10776)"/>
</g>
<path d="M51.1739 183.167L40.2825 183.596C37.6235 181.818 29.3686 139.814 29.3686 139.814C29.4249 140.139 28.3358 181.505 28.3358 181.505H16.6182L10.8613 117L17.2153 119.545C17.2153 119.545 46.3108 117.198 47.6666 118.868C47.952 119.413 51.1739 183.167 51.1739 183.167Z" fill="#404040"/>
<path d="M26.6441 71.2986C31.883 71.2986 36.13 67.0742 36.13 61.8632C36.13 56.6521 31.883 52.4277 26.6441 52.4277C21.4052 52.4277 17.1582 56.6521 17.1582 61.8632C17.1582 67.0742 21.4052 71.2986 26.6441 71.2986Z" fill="#FFB8B8"/>
<path d="M42.7181 136.348C42.3092 135.813 42.0844 135.161 42.077 134.49C42.0695 133.818 42.2798 133.161 42.6767 132.618L41.5625 123.877L48.26 122.736L47.1523 131.993C47.5045 132.267 47.794 132.612 48.0015 133.005C48.209 133.399 48.3297 133.832 48.3556 134.275C48.3816 134.719 48.3121 135.163 48.1519 135.577C47.9917 135.992 47.7444 136.368 47.4265 136.68C47.1086 136.993 46.7274 137.234 46.3084 137.388C45.8894 137.542 45.4422 137.605 44.9966 137.574C44.551 137.542 44.1173 137.417 43.7244 137.205C43.3315 136.994 42.9884 136.701 42.7181 136.348H42.7181Z" fill="#FFB8B8"/>
<path d="M28.082 55.5351L28.2912 55.58C28.2297 55.5392 28.1549 55.5232 28.082 55.5351Z" fill="#E1E7EF"/>
<path d="M23.5981 58.3261C25.6634 58.7749 27.765 59.203 29.8743 59.0635C31.9836 58.9239 34.1349 58.1471 35.5046 56.5455C36.8743 54.9439 37.2531 52.4291 36.0374 50.7089C34.5918 48.6634 31.693 48.4182 29.1799 48.3664L21.261 48.203C19.6964 48.1707 18.0547 48.1555 16.669 48.8789C14.2615 50.1357 13.4304 53.1884 13.4785 55.8923C13.5422 58.4781 14.1674 61.0196 15.3111 63.3426C16.4549 65.6655 18.0901 67.7149 20.1048 69.3503C21.1765 70.2083 22.9409 70.8606 23.7578 69.7596C24.114 69.2796 20.6362 63.7548 20.6262 63.1582C20.5679 59.6905 23.9919 61.1029 23.9336 57.6352" fill="#2F2E41"/>
<path d="M14.4575 119.382C23.4842 126.403 33.4481 129.943 44.727 128.594C39.9634 111.957 38.5505 95.4466 43.1458 79.162L33.6583 74.8928L20.7825 74.2188L13.0314 76.4864C11.941 76.8057 10.9865 77.4727 10.3147 78.3847C9.64286 79.2967 9.29108 80.403 9.31351 81.5334C9.58721 95.4213 10.8702 108.418 14.4575 119.382Z" fill="#858585"/>
<path d="M42.9202 129.941L48.7934 130.615L47.4183 87.2345C47.3568 85.2962 46.7355 83.4165 45.6286 81.82C44.5217 80.2236 42.976 78.9779 41.1763 78.232L39.0801 77.3633L39.6448 97.6978L42.9202 129.941Z" fill="#858585"/>
<path d="M14.1305 127.016C13.5423 126.685 13.0766 126.176 12.8024 125.562C12.5283 124.948 12.4603 124.262 12.6085 123.607L8.10742 116.018L13.8044 112.334L16.4702 121.271C16.9024 121.384 17.3055 121.586 17.6526 121.866C17.9997 122.146 18.2828 122.496 18.4832 122.893C18.6835 123.29 18.7963 123.725 18.8142 124.169C18.8321 124.613 18.7546 125.056 18.5869 125.468C18.4191 125.88 18.165 126.251 17.8415 126.557C17.518 126.864 17.1325 127.098 16.7108 127.245C16.289 127.391 15.8408 127.446 15.3958 127.407C14.9509 127.368 14.5195 127.234 14.1305 127.016Z" fill="#FFB8B8"/>
<path d="M11.7464 123.651L17.2452 119.617L11.2946 102.081L13.4406 76.3535C8.77889 77.8108 3.77348 81.7256 2.94905 86.5164L0 103.653L11.7464 123.651Z" fill="#858585"/>
<path opacity="0.2" d="M14.0727 97.9492L11.6523 107.579L17.1446 121.243L12.9556 108.319L14.0727 97.9492Z" fill="black"/>
<path opacity="0.2" d="M38.0453 102.941L39.9137 123.576L36.75 103.085L38.0453 102.941Z" fill="black"/>
</g>
<defs>
<linearGradient id="paint0_linear_507_10776" x1="14.4853" y1="60.9095" x2="14.4853" y2="60.8447" gradientUnits="userSpaceOnUse">
<stop stop-color="#808080" stop-opacity="0.25"/>
<stop offset="0.54" stop-color="#808080" stop-opacity="0.12"/>
<stop offset="1" stop-color="#808080" stop-opacity="0.1"/>
</linearGradient>
<clipPath id="clip0_507_10776">
<rect width="325" height="205" fill="white" transform="translate(0 0.5)"/>
</clipPath>
</defs>
</svg>
