<svg xmlns="http://www.w3.org/2000/svg" width="76.785" height="102.283" viewBox="0 0 76.785 102.283"><defs><style>.a,.b{fill:#bc6c42;}.a{opacity:0.8;}.c{fill:#5a5a5a;}.d{fill:#444;}</style></defs><g transform="translate(-563 -442.5)"><g transform="translate(563 442.5)"><g transform="translate(0 0)"><path class="a" d="M326.344,84.686c-.054.017-18.765,5.531-18.818,5.549a5,5,0,0,0-3.354,4.717v8.435a3,3,0,0,0,3,3h22.776a3,3,0,0,0,3-3V89.417A5,5,0,0,0,326.344,84.686Z" transform="translate(-256.156 -67.554)"/><path class="b" d="M160.161,164.371v56.46a13,13,0,0,0,12.986,12.986h31.566A13,13,0,0,0,217.7,220.831v-56.46Z" transform="translate(-140.914 -131.534)"/><path class="b" d="M304.172,164.371v69.446h15.783a13,13,0,0,0,12.986-12.986v-56.46Z" transform="translate(-256.156 -131.534)"/><g transform="translate(31.686 46.622)"><path class="c" d="M225.427,233.376a3,3,0,0,0-3,3v35.882a3,3,0,0,0,5.994,0V236.373A3,3,0,0,0,225.427,233.376Z" transform="translate(-222.43 -233.376)"/><path class="c" d="M292.167,233.376a3,3,0,0,0-3,3v35.882a3,3,0,0,0,5.994,0V236.373A3,3,0,0,0,292.167,233.376Z" transform="translate(-275.837 -233.376)"/></g><g transform="translate(48.016 46.622)"><path class="d" d="M307.168,236.377v35.881a3,3,0,0,1-3,3V233.38a3,3,0,0,1,3,3Z" transform="translate(-304.171 -233.379)"/><path class="d" d="M358.908,233.376a3,3,0,0,0-3,3v35.882a3,3,0,0,0,5.994,0V236.373A3,3,0,0,0,358.908,233.376Z" transform="translate(-345.575 -233.376)"/></g><path class="c" d="M99.079,13.239h0A8.009,8.009,0,0,0,89.2,14.367v0l-5.51,5.508-5.51,5.51a8,8,0,0,0,0,11.3L81,39.515l4.057-.42.18-3.82-2.825-2.825a2,2,0,0,1,0-2.825l5.51-5.51,5.508-5.51h0a2,2,0,0,1,2.823,0l2.827,2.827,3.706-.615.533-3.622c-2.958-2.958-3.278-3.36-4.245-3.955Z" transform="translate(-73.438 -9.629)"/><path class="d" d="M130.512,13.238h0a8.006,8.006,0,0,0-9.881,1.131l-5.51,5.508,4.239,4.239,5.51-5.51a2,2,0,0,1,2.823,0l2.827,2.827,4.239-4.237C131.7,14.139,131.529,13.883,130.512,13.238Z" transform="translate(-104.871 -9.628)"/><path class="b" d="M114.48,7.414l-5.368-5.368a7,7,0,0,0-9.889,0l-33.36,33.36a7,7,0,0,0,0,9.889l5.368,5.368a3,3,0,0,0,4.238,0L114.48,11.652a3,3,0,0,0,0-4.238Z" transform="translate(-63.818 -0.001)"/><path class="b" d="M184.119,2.045l5.368,5.368a3,3,0,0,1,0,4.238L169.982,31.156,157.55,18.725l16.68-16.68a7,7,0,0,1,9.889,0Z" transform="translate(-138.825 0)"/></g></g></g></svg>