<svg xmlns="http://www.w3.org/2000/svg" width="292.308" height="249.423" viewBox="0 0 292.308 249.423"><defs><style>.a{fill:#2f2e41;}.b{fill:#a0616a;}.c{fill:#ebd2c6;}.d{fill:#4d4f5c;}.e{fill:#3f3d56;}.f,.i{fill:#bc6c42;}.g{fill:none;}.h{fill:#fff;}.i{opacity:0.3;}</style></defs><path class="a" d="M828.7,347.107c3.149,6.191,5.63,12.576,12.576,12.576a12.576,12.576,0,0,0,0-25.152C834.216,334.443,822.838,335.584,828.7,347.107Z" transform="translate(-577.929 -261.472)"/><path class="b" d="M564.938,501.974l-5.374,1.2-7.177-20.16,7.932-1.768Z" transform="translate(-304.284 -265.094)"/><path class="a" d="M836.814,701.652l-17.33,3.862-.049-.219a6.911,6.911,0,0,1,5.242-8.249h0l10.585-2.359Z" transform="translate(-573.628 -459.868)"/><path class="b" d="M605.913,517.393h-5.507l-2.62-21.239h8.127Z" transform="translate(-329.293 -273.308)"/><path class="a" d="M869.595,718.45H851.84v-.225a6.911,6.911,0,0,1,6.911-6.911H869.6Z" transform="translate(-591.57 -469.027)"/><path class="a" d="M843.684,605.693h-7.028a2.029,2.029,0,0,1-2-1.747l-6.37-49.279a.674.674,0,0,0-1.318-.083l-3.775,14.071,3.4,32.047a2.019,2.019,0,0,1-1.553,2.2l-5.575,1.286a2.031,2.031,0,0,1-2.382-1.361l-8.977-31.156a17.568,17.568,0,0,1-.731-7.073l2.809-28.087.213.01,37.5,1.807L845.7,603.742A2.014,2.014,0,0,1,843.684,605.693Z" transform="translate(-567.027 -372.738)"/><circle class="b" cx="11.032" cy="11.032" r="11.032" transform="translate(251.695 76.393)"/><path class="c" d="M847.5,464.867q-.054,0-.109,0L810,462.853a2.021,2.021,0,0,1-1.815-2.637l2.959-9.189a59.451,59.451,0,0,0,1.57-30.486,19.026,19.026,0,0,1,3.38-15.336,18.745,18.745,0,0,1,13.546-7.477h0q.275-.022.551-.039a18.941,18.941,0,0,1,19.85,21.717l-2.607,17.5,2.078,25.773a2.021,2.021,0,0,1-2.014,2.183Z" transform="translate(-567.468 -296.247)"/><path class="b" d="M784.677,526.433a4.517,4.517,0,0,0,.705-6.89l7.2-14.345-8.283.981-5.567,13.472a4.541,4.541,0,0,0,5.945,6.782Z" transform="translate(-550.656 -355.487)"/><path class="b" d="M898.228,530.384a4.517,4.517,0,0,1,.456-6.911l-4.7-15.346,8,2.351,3.237,14.213a4.541,4.541,0,0,1-6.995,5.693Z" transform="translate(-614.785 -357.1)"/><path class="c" d="M887.07,466.123a2.011,2.011,0,0,1-2-1.756l-3.74-28.217-5.967-22.05a6.373,6.373,0,0,1,5.995-8.035h0a6.4,6.4,0,0,1,6.438,5.3l8.891,52.076a2.022,2.022,0,0,1-1.907,2.359l-7.62.322Z" transform="translate(-604.405 -300.879)"/><path class="c" d="M790.685,461.1a2.07,2.07,0,0,1-.43-.046l-7.459-1.59a2.021,2.021,0,0,1-1.486-2.645l17.468-49.858a6.407,6.407,0,0,1,7.233-4.148h0a6.373,6.373,0,0,1,4.568,8.924L801,432.508l-8.393,27.168a2.01,2.01,0,0,1-1.923,1.426Z" transform="translate(-552.656 -299.026)"/><path class="a" d="M831.247,345.395a15,15,0,0,0,8.574,2.65,9.193,9.193,0,0,1-3.644,1.5,30.254,30.254,0,0,0,12.358.069,8,8,0,0,0,2.587-.889,3.274,3.274,0,0,0,1.6-2.136c.271-1.549-.936-2.956-2.19-3.9a16.155,16.155,0,0,0-13.575-2.713,7.434,7.434,0,0,0-4.02,2.272,3.662,3.662,0,0,0-.338,4.349Z" transform="translate(-580.227 -264.205)"/><path class="d" d="M465.821,171.875H276.281a3.92,3.92,0,0,0-3.917,3.917V360.535a3.92,3.92,0,0,0,3.917,3.917H292.9v-1.118H276.281a2.8,2.8,0,0,1-2.8-2.8V175.792a2.8,2.8,0,0,1,2.8-2.8h189.54a2.8,2.8,0,0,1,2.8,2.8V360.535a2.775,2.775,0,0,1-.463,1.536,2.894,2.894,0,0,1-1.06.952,2.778,2.778,0,0,1-1.28.31H449.2v1.118h16.618a3.913,3.913,0,0,0,2.978-1.374.869.869,0,0,0,.085-.108,3.659,3.659,0,0,0,.561-.948,3.816,3.816,0,0,0,.3-1.487V175.792A3.921,3.921,0,0,0,465.821,171.875Z" transform="translate(-272.364 -171.875)"/><rect class="e" width="196.258" height="1.12" transform="translate(0.558 15.699)"/><circle class="f" cx="3.359" cy="3.359" r="3.359" transform="translate(6.716 5.04)"/><circle class="f" cx="3.359" cy="3.359" r="3.359" transform="translate(16.373 5.04)"/><circle class="f" cx="3.359" cy="3.359" r="3.359" transform="translate(26.03 5.04)"/><path class="g" d="M474.2,250.209h-94.77a5.839,5.839,0,0,1,0-11.678H474.2a5.839,5.839,0,0,1,0,11.678Zm-94.77-10.78a4.941,4.941,0,0,0,0,9.881H474.2a4.941,4.941,0,0,0,0-9.881Z" transform="translate(-328.124 -208.593)"/><path class="e" d="M466.553,371.209H323.724a7.644,7.644,0,0,1-7.636-7.635V317.76a7.644,7.644,0,0,1,7.636-7.635H466.553a7.644,7.644,0,0,1,7.635,7.635v45.813a7.644,7.644,0,0,1-7.636,7.635ZM323.724,311.023a6.745,6.745,0,0,0-6.737,6.737v45.813a6.745,6.745,0,0,0,6.737,6.737H466.553a6.745,6.745,0,0,0,6.737-6.737V317.76a6.745,6.745,0,0,0-6.737-6.737Z" transform="translate(-296.45 -248.03)"/><path class="f" d="M468.238,363.811H418.383a3.593,3.593,0,1,1,0-7.186h49.855a3.593,3.593,0,0,1,0,7.186Z" transform="translate(-350.82 -273.645)"/><path class="f" d="M514.5,390.811H418.383a3.593,3.593,0,1,1,0-7.186H514.5a3.593,3.593,0,0,1,0,7.186Z" transform="translate(-350.82 -288.518)"/><circle class="f" cx="13.474" cy="13.474" r="13.474" transform="translate(30.103 79.162)"/><path class="h" d="M616.947,423.311H604.371a3.593,3.593,0,0,1,0-7.186h12.576a3.593,3.593,0,0,1,0,7.186Z" transform="translate(-453.272 -306.421)"/><path class="i" d="M616.947,423.311H604.371a3.593,3.593,0,0,1,0-7.186h12.576a3.593,3.593,0,0,1,0,7.186Z" transform="translate(-453.272 -306.421)"/><path class="e" d="M466.549,494.125H323.72a7.646,7.646,0,0,0-7.635,7.635v45.813a7.646,7.646,0,0,0,7.635,7.636H466.549a7.644,7.644,0,0,0,7.636-7.636V501.76a7.643,7.643,0,0,0-7.635-7.635Zm6.737,53.448a6.743,6.743,0,0,1-6.737,6.737H323.72a6.745,6.745,0,0,1-6.737-6.737V501.76a6.745,6.745,0,0,1,6.737-6.737H466.549a6.743,6.743,0,0,1,6.737,6.737Z" transform="translate(-296.448 -349.387)"/><path class="f" d="M468.238,547.811H418.383a3.593,3.593,0,1,1,0-7.186h49.855a3.593,3.593,0,0,1,0,7.186Z" transform="translate(-350.82 -375.002)"/><path class="f" d="M514.5,574.811H418.383a3.593,3.593,0,1,1,0-7.186H514.5a3.593,3.593,0,0,1,0,7.186Z" transform="translate(-350.82 -389.875)"/><circle class="f" cx="13.474" cy="13.474" r="13.474" transform="translate(30.103 161.805)"/><path class="i" d="M616.947,607.311H604.371a3.593,3.593,0,1,1,0-7.186h12.576a3.593,3.593,0,1,1,0,7.186Z" transform="translate(-453.272 -407.778)"/></svg>