<svg xmlns="http://www.w3.org/2000/svg" width="31.95" height="25.842" viewBox="0 0 31.95 25.842"><defs><style>.a{fill:#bc6c42;}</style></defs><path class="a" d="M30.878,31.884h-2.24V29.566a1.072,1.072,0,0,0-.913-1.06,16.463,16.463,0,0,0-4.9.147,11.007,11.007,0,0,0-6.849,3.834,11.008,11.008,0,0,0-6.849-3.834,16.466,16.466,0,0,0-4.9-.147,1.072,1.072,0,0,0-.913,1.06v2.318H1.072A1.072,1.072,0,0,0,0,32.956v20.2a1.072,1.072,0,0,0,1.425,1.013c.08-.028,8.115-2.77,14.105-.037a1.072,1.072,0,0,0,.89,0c5.974-2.725,14.025.009,14.105.037A1.072,1.072,0,0,0,31.95,53.16v-20.2A1.072,1.072,0,0,0,30.878,31.884ZM2.144,51.725v-17.7H3.312V48.306a1.073,1.073,0,0,0,1.229,1.06c.059-.009,4.717-.648,8.12,1.687A26.1,26.1,0,0,0,2.144,51.725ZM14.9,50.087a11.553,11.553,0,0,0-5.777-2.693,16.825,16.825,0,0,0-2.988-.263c-.247,0-.475.005-.681.014V30.55h0c2.061-.093,7.073.127,9.447,4.151ZM17.047,34.7c2.365-4.006,7.386-4.237,9.447-4.148V47.144a17,17,0,0,0-3.67.25,11.552,11.552,0,0,0-5.777,2.693V34.7Zm2.239,16.353c3.4-2.336,8.063-1.7,8.121-1.687a1.072,1.072,0,0,0,1.231-1.06V34.028h1.167v17.7A26.1,26.1,0,0,0,19.286,51.054Z" transform="translate(0 -28.39)"/></svg>