<svg width="28" height="27" viewBox="0 0 28 27" fill="none" xmlns="http://www.w3.org/2000/svg">
<path d="M13.9857 0.166016C6.62568 0.166016 0.652344 6.13935 0.652344 13.4993C0.652344 20.8594 6.62568 26.8327 13.9857 26.8327C21.3457 26.8327 27.319 20.8594 27.319 13.4993C27.319 6.13935 21.3457 0.166016 13.9857 0.166016ZM18.799 8.61935C20.2257 8.61935 21.3723 9.76602 21.3723 11.1927C21.3723 12.6194 20.2257 13.766 18.799 13.766C17.3723 13.766 16.2257 12.6194 16.2257 11.1927C16.2123 9.76602 17.3723 8.61935 18.799 8.61935ZM10.799 6.51268C12.5323 6.51268 13.9457 7.92602 13.9457 9.65935C13.9457 11.3927 12.5323 12.806 10.799 12.806C9.06568 12.806 7.65234 11.3927 7.65234 9.65935C7.65234 7.91268 9.05234 6.51268 10.799 6.51268ZM10.799 18.686V23.686C7.59901 22.686 5.06568 20.2193 3.94568 17.0727C5.34568 15.5793 8.83901 14.8193 10.799 14.8193C11.5057 14.8193 12.399 14.926 13.3323 15.1127C11.1457 16.2727 10.799 17.806 10.799 18.686ZM13.9857 24.166C13.6257 24.166 13.279 24.1527 12.9323 24.1127V18.686C12.9323 16.7927 16.8523 15.846 18.799 15.846C20.2257 15.846 22.6923 16.366 23.919 17.3793C22.359 21.3393 18.5057 24.166 13.9857 24.166Z" fill="#FE9D2B"/>
</svg>
