<svg xmlns="http://www.w3.org/2000/svg" width="16" height="20.41" viewBox="0 0 16 20.41"><defs><style>.a{fill:#bc6c42;}</style></defs><g transform="translate(-2)"><path class="a" d="M7,15.5H6.5v1H7a.5.5,0,0,0,0-1Z" transform="translate(-0.947 -2.419)"/><path class="a" d="M12,15.5h-.5v1H12a.5.5,0,0,0,0-1Z" transform="translate(-2 -2.419)"/><path class="a" d="M15.8,0H4.2A2.274,2.274,0,0,0,2,2.339V18.071A2.274,2.274,0,0,0,4.2,20.41H15.8A2.274,2.274,0,0,0,18,18.071V2.339A2.274,2.274,0,0,0,15.8,0ZM6,15.307H5.6v1.063a.6.6,0,1,1-1.2,0V12.544a.62.62,0,0,1,.6-.638H6a1.7,1.7,0,0,1,0,3.4Zm4,0H9.6v1.063a.6.6,0,1,1-1.2,0V12.544a.62.62,0,0,1,.6-.638h1a1.7,1.7,0,0,1,0,3.4Zm5-2.126h-.4v3.189a.6.6,0,1,1-1.2,0V13.181H13a.639.639,0,0,1,0-1.276h2a.639.639,0,0,1,0,1.276Z" transform="translate(0)"/></g></svg>