<svg xmlns="http://www.w3.org/2000/svg" width="44.053" height="43.85" viewBox="0 0 44.053 43.85"><defs><style>.a{fill:#4d4f5c;stroke:#4d4f5c;stroke-width:0.5px;}</style></defs><g transform="translate(-194.685 -370.75)"><g transform="translate(195 371)"><path class="a" d="M220.168,331.637a.846.846,0,1,0-1.2,0A.846.846,0,0,0,220.168,331.637Zm0,0" transform="translate(-200.276 -302.279)"/><path class="a" d="M188.449,9.3a9.3,9.3,0,1,0,9.3-9.3A9.307,9.307,0,0,0,188.449,9.3Zm16.9,0a7.607,7.607,0,1,1-7.607-7.606A7.615,7.615,0,0,1,205.352,9.3Zm0,0" transform="translate(-172.526 0)"/><path class="a" d="M10.236,237.4a.845.845,0,0,0,1.193.007l4.1-4.037a2.554,2.554,0,0,0,.6-2.623l.881-.85a2.52,2.52,0,0,1,1.76-.711H30a7.567,7.567,0,0,0,5.305-2.155c.059-.057-.446.538,7.665-9.157a3.381,3.381,0,0,0-5.144-4.388l-4.987,5.126a3.4,3.4,0,0,0-2.628-1.258H20.791a10.9,10.9,0,0,0-4.232-.845,10.456,10.456,0,0,0-9.53,5.4,2.525,2.525,0,0,0-2.26.7L.748,226.65a.845.845,0,0,0,0,1.192Zm6.323-19.2a9.226,9.226,0,0,1,3.721.774.844.844,0,0,0,.339.071h9.6a1.69,1.69,0,1,1,0,3.381h-6.9a.845.845,0,0,0,0,1.69h6.9a3.375,3.375,0,0,0,3.351-3.822c4.824-4.959,5.5-5.656,5.534-5.691a1.691,1.691,0,1,1,2.581,2.184l-7.58,9.062A5.885,5.885,0,0,1,30,227.5H18.769a4.2,4.2,0,0,0-2.934,1.185l-.718.693L8.5,222.758A8.726,8.726,0,0,1,16.559,218.2ZM5.964,223.812a.843.843,0,0,1,1.047-.119c.146.089-.274-.293,7.32,7.29a.847.847,0,0,1,0,1.191l-3.493,3.441-8.3-8.368Zm0,0" transform="translate(-0.501 -194.37)"/></g><g transform="translate(215.567 375.645)"><g transform="translate(0 0)"><path class="a" d="M58.251,220.4a4.551,4.551,0,1,0,4.551,4.551A4.551,4.551,0,0,0,58.251,220.4Zm0,7.73a3.172,3.172,0,1,1,3.172-3.172A3.172,3.172,0,0,1,58.251,228.13Z" transform="translate(-53.7 -220.4)"/></g></g></g></svg>