<svg width="30" height="17" viewBox="0 0 30 17" fill="none" xmlns="http://www.w3.org/2000/svg">
<path d="M27.0006 0.166016C25.0673 0.166016 23.9873 2.08602 24.4273 3.51268L19.694 8.25935C19.294 8.13935 18.7073 8.13935 18.3073 8.25935L14.9073 4.85935C15.3607 3.43268 14.2807 1.49935 12.334 1.49935C10.4007 1.49935 9.30732 3.41935 9.76065 4.85935L3.68065 10.926C2.25398 10.486 0.333984 11.566 0.333984 13.4993C0.333984 14.966 1.53398 16.166 3.00065 16.166C4.93398 16.166 6.01398 14.246 5.57398 12.8193L11.6406 6.73935C12.0406 6.85935 12.6273 6.85935 13.0273 6.73935L16.4273 10.1393C15.974 11.566 17.054 13.4993 19.0007 13.4993C20.934 13.4993 22.0273 11.5793 21.574 10.1393L26.3207 5.40602C27.7473 5.84602 29.6673 4.76602 29.6673 2.83268C29.6673 1.36602 28.4673 0.166016 27.0006 0.166016Z" fill="#FE9D2B"/>
</svg>
