<svg width="12" height="12" viewBox="0 0 12 12" fill="none" xmlns="http://www.w3.org/2000/svg">
<path d="M11.5 2.75V10C11.5 11.1 10.6 12 9.5 12H5.85C5.31 12 4.8 11.785 4.425 11.405L0.5 7.415C0.5 7.415 1.13 6.8 1.15 6.79C1.26 6.695 1.395 6.645 1.545 6.645C1.655 6.645 1.755 6.675 1.845 6.725C1.865 6.73 4 7.955 4 7.955V2C4 1.585 4.335 1.25 4.75 1.25C5.165 1.25 5.5 1.585 5.5 2V5.5H6V0.75C6 0.335 6.335 0 6.75 0C7.165 0 7.5 0.335 7.5 0.75V5.5H8V1.25C8 0.835 8.335 0.5 8.75 0.5C9.165 0.5 9.5 0.835 9.5 1.25V5.5H10V2.75C10 2.335 10.335 2 10.75 2C11.165 2 11.5 2.335 11.5 2.75Z" fill="#F17F22"/>
</svg>
