<svg xmlns="http://www.w3.org/2000/svg" width="10.174" height="20" viewBox="0 0 10.174 20"><defs><style>.a{opacity:0.8;}.b{fill:#4d4f5c;}</style></defs><g transform="translate(-125.435)"><path class="a" d="M125.518,18.695l3.356-7.367.055-.373a.768.768,0,0,1-1-.284l-1.512-2.463a.769.769,0,0,1,.311-1.09l3.3-1.654a.764.764,0,0,1,.494-.066c.1-.015,2.525.374,2.525.374l.993-1.779-.5-3.1a.769.769,0,1,1,1.519-.242l.537,3.366a.769.769,0,0,1-.088.5l-2.025,3.629-.549,3.551,1.863,2.635a.923.923,0,0,1,.162.652l-.55,4.22a.923.923,0,0,1-1.83-.239l.5-3.863-2.127-3.008-.378-.056c-.014.034-1.021,2.244-3.382,7.429a.923.923,0,0,1-1.679-.765Zm3.6-9.024.324-2.193-1.277.64Z" transform="translate(0 0)"/><ellipse class="b" cx="1.594" cy="1.594" rx="1.594" ry="1.594" transform="matrix(-0.596, -0.803, 0.803, -0.596, 131.769, 5.717)"/></g></svg>