<svg xmlns="http://www.w3.org/2000/svg" width="99.529" height="99.537" viewBox="0 0 99.529 99.537"><defs><style>.a{fill:#bc6c42;}</style></defs><g transform="translate(-16.038 -16)"><path class="a" d="M164.313,76.78V67.428A14.947,14.947,0,0,0,149.382,52.5h-4.977V45.167a8.305,8.305,0,0,0,4.977-7.6V30.153A8.312,8.312,0,0,0,142.1,21.92l-52.25-5.91a1.659,1.659,0,0,0-1.817,1.954l4.977,26.543a1.659,1.659,0,0,0,1.63,1.353h20.225l2.9,13.511a6.63,6.63,0,0,0-2.619,11.373,6.622,6.622,0,0,0,0,9.954,6.629,6.629,0,0,0,2.189,11.239,6.633,6.633,0,0,0,5.511,10.327h13.605A16.618,16.618,0,0,0,152.7,115.537a1.659,1.659,0,1,0,0-3.318,13.3,13.3,0,0,1-12.852-9.954h10.44l11.117,12.705a1.659,1.659,0,0,0,1.249.567h8.295a1.659,1.659,0,0,0,1.659-1.659V87.335a1.659,1.659,0,0,0-.385-1.062Zm-68.3-34.237L91.7,19.56l8.108.917,4.414,22.067Zm11.6,0-4.334-21.675L141.7,25.214a4.985,4.985,0,0,1,4.359,4.938v7.414a4.982,4.982,0,0,1-4.977,4.977Zm11.912,19.907h3.318a3.318,3.318,0,0,1,0,6.636h-3.318a3.318,3.318,0,0,1,0-6.636Zm6.636,36.5h-3.318a3.318,3.318,0,1,1,0-6.636h3.318a3.318,3.318,0,1,1,0,6.636Zm1.659-9.954h-8.295a3.318,3.318,0,1,1,0-6.636h8.295a3.318,3.318,0,1,1,0,6.636Zm1.659-9.954h-9.954a3.318,3.318,0,1,1,0-6.636h9.954a3.318,3.318,0,1,1,0,6.636Zm6.636,19.907H131.9a6.612,6.612,0,0,0,0-6.636h4.21Zm0-9.954H133.56a6.615,6.615,0,0,0-.667-7.586,6.634,6.634,0,0,0-3.418-12.322h-.892a6.631,6.631,0,0,0-5.744-9.954H121.1l-2.843-13.272h22.831V52.5a8.295,8.295,0,0,0-1.664,16.422,28.824,28.824,0,0,0,1.664,9.1v6A4.983,4.983,0,0,1,136.11,88.994Zm33.179,23.225h-5.883L152.29,99.514a1.659,1.659,0,0,0-1.249-.567H139.428v-7.33a8.305,8.305,0,0,0,4.977-7.6v-.549a11.938,11.938,0,0,0,2.464,1.972h0a1.657,1.657,0,0,0,1.705-2.842h0a10.629,10.629,0,0,1-4.171-5.212v0h0a25.029,25.029,0,0,1-1.65-8.295h4.97a1.659,1.659,0,0,0,0-3.318h-6.636a4.977,4.977,0,1,1,0-9.954h8.295a11.626,11.626,0,0,1,11.613,11.613v9.954a1.659,1.659,0,0,0,.385,1.062l7.91,9.493Z" transform="translate(-57.04)"/><path class="a" d="M53.262,63.114a1.659,1.659,0,0,0-2.346,0,9.954,9.954,0,0,0,0,14.077,1.659,1.659,0,1,0,2.346-2.346,6.636,6.636,0,0,1,0-9.384A1.659,1.659,0,0,0,53.262,63.114Z" transform="translate(-25.334 -36.958)"/><path class="a" d="M20.889,40.486a16.608,16.608,0,0,0,0,23.461A1.659,1.659,0,1,0,23.235,61.6a13.287,13.287,0,0,1,0-18.769,1.659,1.659,0,1,0-2.346-2.346Z" transform="translate(0 -19.023)"/></g></svg>