<svg xmlns="http://www.w3.org/2000/svg" width="154" height="48" viewBox="0 0 154 48"><defs><style>.a,.c{fill:none;}.b{fill:#bc6c42;font-size:14px;font-family:Poppins-Medium, Poppins;font-weight:500;}.c{stroke:#bc6c42;stroke-linecap:round;stroke-linejoin:round;stroke-width:1.5px;}.d,.e{stroke:none;}.e{fill:#bc6c42;}</style></defs><g transform="translate(-1165 -162)"><g class="a" transform="translate(1165 162)"><path class="d" d="M3.85,0h146.3A3.973,3.973,0,0,1,154,4.085v39.83A3.973,3.973,0,0,1,150.15,48H3.85A3.973,3.973,0,0,1,0,43.915V4.085A3.973,3.973,0,0,1,3.85,0Z"/><path class="e" d="M 3.850006103515625 1 C 2.27850341796875 1 0.9999847412109375 2.383979797363281 0.9999847412109375 4.085098266601562 L 0.9999847412109375 43.91487884521484 C 0.9999847412109375 45.61602020263672 2.27850341796875 47 3.850006103515625 47 L 150.1499633789062 47 C 151.7214813232422 47 153 45.61602020263672 153 43.91487884521484 L 153 4.085098266601562 C 153 2.383979797363281 151.7214813232422 1 150.1499633789062 1 L 3.850006103515625 1 M 3.850006103515625 0 L 150.1499633789062 0 C 152.2763214111328 0 154 1.828960418701172 154 4.085098266601562 L 154 43.91487884521484 C 154 46.17103958129883 152.2763214111328 48 150.1499633789062 48 L 3.850006103515625 48 C 1.723709106445312 48 -1.52587890625e-05 46.17103958129883 -1.52587890625e-05 43.91487884521484 L -1.52587890625e-05 4.085098266601562 C -1.52587890625e-05 1.828960418701172 1.723709106445312 0 3.850006103515625 0 Z"/></g><g transform="translate(1211 176)"><text class="b" transform="translate(0 15)"><tspan x="0" y="0">See schedule</tspan></text></g><g transform="translate(1177 174)"><rect class="c" width="18" height="18" rx="2" transform="translate(3 4)"/><line class="c" y2="4" transform="translate(16 2)"/><line class="c" y2="4" transform="translate(8 2)"/><line class="c" x2="18" transform="translate(3 10)"/></g></g></svg>