<svg width="28" height="28" viewBox="0 0 28 28" fill="none" xmlns="http://www.w3.org/2000/svg">
<path d="M3.33268 5.99935H0.666016V24.666C0.666016 26.1327 1.86602 27.3327 3.33268 27.3327H21.9993V24.666H3.33268V5.99935ZM24.666 0.666016H8.66602C7.19935 0.666016 5.99935 1.86602 5.99935 3.33268V19.3327C5.99935 20.7993 7.19935 21.9993 8.66602 21.9993H24.666C26.1327 21.9993 27.3327 20.7993 27.3327 19.3327V3.33268C27.3327 1.86602 26.1327 0.666016 24.666 0.666016ZM23.3327 12.666H9.99935V9.99935H23.3327V12.666ZM17.9993 17.9993H9.99935V15.3327H17.9993V17.9993ZM23.3327 7.33268H9.99935V4.66602H23.3327V7.33268Z" fill="#FE9D2B"/>
</svg>
