<svg width="17" height="18" viewBox="0 0 17 18" fill="none" xmlns="http://www.w3.org/2000/svg">
<path d="M7.66602 4.83268H9.33268V6.49935H7.66602V4.83268ZM7.66602 8.16602H9.33268V13.166H7.66602V8.16602ZM8.49935 0.666016C3.89935 0.666016 0.166016 4.39935 0.166016 8.99935C0.166016 13.5993 3.89935 17.3327 8.49935 17.3327C13.0993 17.3327 16.8327 13.5993 16.8327 8.99935C16.8327 4.39935 13.0993 0.666016 8.49935 0.666016ZM8.49935 15.666C4.82435 15.666 1.83268 12.6743 1.83268 8.99935C1.83268 5.32435 4.82435 2.33268 8.49935 2.33268C12.1743 2.33268 15.166 5.32435 15.166 8.99935C15.166 12.6743 12.1743 15.666 8.49935 15.666Z" fill="#FE9D2B"/>
</svg>
