<svg width="28" height="27" viewBox="0 0 28 27" fill="none" xmlns="http://www.w3.org/2000/svg">
<path d="M16.668 0.167969H3.33464C1.85464 0.167969 0.667969 1.36797 0.667969 2.83464V16.168H3.33464V2.83464H16.668V0.167969ZM22.0013 5.5013H8.66797C7.18797 5.5013 6.0013 6.7013 6.0013 8.16797V21.5013H8.66797V8.16797H22.0013V5.5013ZM24.668 10.8346H14.0013C12.5213 10.8346 11.3346 12.0346 11.3346 13.5013V24.168C11.3346 25.6346 12.5213 26.8346 14.0013 26.8346H24.668C26.1346 26.8346 27.3346 25.6346 27.3346 24.168V13.5013C27.3346 12.0346 26.1346 10.8346 24.668 10.8346Z" fill="#FE9D2B"/>
</svg>
