<svg xmlns="http://www.w3.org/2000/svg" width="24.524" height="23.373" viewBox="0 0 24.524 23.373"><defs><style>.a,.b{fill:#4d4f5c;}.a{stroke:#4d4f5c;stroke-width:0.5px;}</style></defs><g transform="translate(0.25 -0.141)"><path class="a" d="M347.178,40.745h.026a.321.321,0,0,0,.044,0,.716.716,0,0,1,.7.715.321.321,0,1,0,.641,0,1.359,1.359,0,0,0-1.067-1.326v-.308a.321.321,0,0,0-.641,0v.323a1.357,1.357,0,0,0,.351,2.668.716.716,0,1,1-.716.716.321.321,0,0,0-.641,0,1.36,1.36,0,0,0,1.007,1.311v.351a.321.321,0,0,0,.641,0v-.337a1.357,1.357,0,0,0-.291-2.683.716.716,0,0,1-.056-1.43Zm0,0" transform="translate(-328.577 -37.546)"/><path class="a" d="M18.5.391a5.585,5.585,0,0,0-5.2,3.655H3.634a.407.407,0,0,0-.389.407L3.153,18.106H.4a.383.383,0,0,0-.4.371V20.21a3.057,3.057,0,0,0,2.919,3.045v.009H14.937v-.011c.1,0,.137.011.2.011h.008A3.057,3.057,0,0,0,18.2,20.206V11.445c.1.005.2.008.3.008A5.531,5.531,0,0,0,18.5.391ZM3.067,22.485h0A2.289,2.289,0,0,1,.778,20.206V18.884H12.066V20.2a3.053,3.053,0,0,0,.9,2.164c.041.041.092.072.134.121Zm14.351-2.279a2.279,2.279,0,0,1-2.274,2.279h-.007A2.3,2.3,0,0,1,12.845,20.2V18.477a.359.359,0,0,0-.372-.371H3.932L4.021,4.824h9.058A5.848,5.848,0,0,0,12.972,5.9a5.489,5.489,0,0,0,.47,2.227H9.766a.389.389,0,1,0,0,.778h4.1a5.493,5.493,0,0,0,3.554,2.438Zm1.08-9.53a4.748,4.748,0,1,1,4.748-4.748A4.747,4.747,0,0,1,18.5,10.675Zm0,0" transform="translate(0 0)"/><path class="a" d="M192.719,229.824a.32.32,0,0,0,.321.321h4.274a.321.321,0,0,0,0-.641h-4.274A.32.32,0,0,0,192.719,229.824Zm0,0" transform="translate(-182.796 -217.932)"/><path class="b" d="M124.531,143.2a.745.745,0,1,0,.769.745A.758.758,0,0,0,124.531,143.2Z" transform="translate(-117.334 -135.452)"/><path class="b" d="M124.531,143.2a.745.745,0,1,0,.769.745A.758.758,0,0,0,124.531,143.2Z" transform="translate(-117.334 -132.148)"/><path class="b" d="M124.531,143.2a.745.745,0,1,0,.769.745A.758.758,0,0,0,124.531,143.2Z" transform="translate(-117.334 -128.45)"/><path class="a" d="M197.313,299.5h-4.274a.321.321,0,0,0,0,.641h4.274a.321.321,0,0,0,0-.641Zm0,0" transform="translate(-182.796 -284.47)"/></g></svg>