<svg xmlns="http://www.w3.org/2000/svg" width="20.5" height="20.464" viewBox="0 0 20.5 20.464"><defs><style>.a{fill:#4d4f5c;stroke:#4d4f5c;stroke-width:0.5px;}</style></defs><g transform="translate(211.524 29.636)"><g transform="translate(-211.274 -29.379)"><path class="a" d="M19.684,3.812l-.6-3.025a.333.333,0,0,0-.392-.262h0L2.177,3.809h-.51a.333.333,0,0,0-.333.333v1.7A1.663,1.663,0,0,0,0,7.475V18.809a1.669,1.669,0,0,0,1.667,1.667h18A.333.333,0,0,0,20,20.142v-16A.333.333,0,0,0,19.684,3.812Zm-1.19-2.568L19,3.809H5.6ZM.956,6.768h0a1.019,1.019,0,0,1,.376-.237V8.414l-.022-.007a.98.98,0,0,1-.125-.06.6.6,0,0,1-.061-.033,1.029,1.029,0,0,1-.167-.131A1,1,0,0,1,.956,6.768Zm18.378,9.041H14.667V13.142h4.667Zm0-3.333h-5a.333.333,0,0,0-.333.333v3.333a.333.333,0,0,0,.333.333h5v3.333H1.667a1,1,0,0,1-1-1v-10c.015.011.032.019.047.03s.06.038.09.057a1.676,1.676,0,0,0,.174.093c.033.015.067.03.1.042a1.606,1.606,0,0,0,.2.059c.031.008.061.017.092.023a1.666,1.666,0,0,0,.3.029H19.333Zm-10.976-4a2.333,2.333,0,0,1,4.619,0Zm10.976,0H13.647a3,3,0,0,0-5.961,0H2v-4H19.333Z" transform="translate(0 -0.518)"/></g></g></svg>