<svg xmlns="http://www.w3.org/2000/svg" width="20.5" height="17.083" viewBox="0 0 20.5 17.083"><defs><style>.a{fill:#4d4f5c;stroke:#4d4f5c;stroke-width:0.1px;}</style></defs><g transform="translate(0.25 0.25)"><g transform="translate(0 7.962)"><path class="a" d="M17.07,231.07H15.112a3.145,3.145,0,0,0-.77.1,2.965,2.965,0,0,0-2.612-1.486H8.27a2.965,2.965,0,0,0-2.612,1.486,3.145,3.145,0,0,0-.77-.1H2.93A2.83,2.83,0,0,0,0,233.78v2.9A1.7,1.7,0,0,0,1.758,238.3H18.242A1.7,1.7,0,0,0,20,236.676v-2.9A2.83,2.83,0,0,0,17.07,231.07ZM5.34,232.39v4.827H1.758a.566.566,0,0,1-.586-.542v-2.9a1.7,1.7,0,0,1,1.758-1.626H4.887a1.885,1.885,0,0,1,.46.057C5.343,232.27,5.34,232.33,5.34,232.39Zm8.148,4.827H6.512V232.39a1.7,1.7,0,0,1,1.758-1.626H11.73a1.7,1.7,0,0,1,1.758,1.626Zm5.34-.542a.566.566,0,0,1-.586.542H14.66V232.39c0-.06,0-.12-.007-.179a1.887,1.887,0,0,1,.46-.057H17.07a1.7,1.7,0,0,1,1.758,1.626Z" transform="translate(0 -229.68)"/></g><g transform="translate(1.207 3.344)"><g transform="translate(0 0)"><path class="a" d="M35.822,126.5a2.408,2.408,0,1,0,2.408,2.408A2.411,2.411,0,0,0,35.822,126.5Zm0,3.733a1.324,1.324,0,1,1,1.324-1.324A1.326,1.326,0,0,1,35.822,130.237Z" transform="translate(-33.414 -126.504)"/></g></g><g transform="translate(6.782 0)"><path class="a" d="M170.179,43.729a3.217,3.217,0,1,0,3.217,3.217A3.221,3.221,0,0,0,170.179,43.729Zm0,5.351a2.133,2.133,0,1,1,2.133-2.133A2.136,2.136,0,0,1,170.179,49.08Z" transform="translate(-166.962 -43.729)"/></g><g transform="translate(13.976 3.344)"><g transform="translate(0 0)"><path class="a" d="M347.7,126.5a2.408,2.408,0,1,0,2.408,2.408A2.411,2.411,0,0,0,347.7,126.5Zm0,3.733a1.324,1.324,0,1,1,1.324-1.324A1.326,1.326,0,0,1,347.7,130.237Z" transform="translate(-345.294 -126.504)"/></g></g></g></svg>