<svg xmlns="http://www.w3.org/2000/svg" width="22.125" height="22.125" viewBox="0 0 22.125 22.125"><defs><style>.a{fill:#4d4f5c;}</style></defs><g transform="translate(-45 -96)"><path class="a" d="M22.125,7.588a.654.654,0,0,0-.259-.515L19.348,5.184V2.731A2.731,2.731,0,0,0,16.617,0H5.508A2.731,2.731,0,0,0,2.777,2.731V5.184L.259,7.073l0,0A.654.654,0,0,0,0,7.588s0,0,0,0v11.8a2.734,2.734,0,0,0,2.731,2.731H19.394a2.734,2.734,0,0,0,2.731-2.731V7.591S22.125,7.589,22.125,7.588Zm-1.3,11.807a1.424,1.424,0,0,1-.2.736L13.374,15.3l7.454-6.308ZM10.267,15.844a1.43,1.43,0,0,1,1.591,0l7.478,4.985H2.789Zm10.17-8.222-1.089.922V6.8ZM4.074,2.731A1.434,1.434,0,0,1,5.508,1.3H16.617a1.434,1.434,0,0,1,1.435,1.435V9.442a.649.649,0,0,0,.025.177l-5.848,4.948a2.719,2.719,0,0,0-2.332,0L4.049,9.619a.649.649,0,0,0,.025-.177Zm-1.3,5.812L1.688,7.622,2.777,6.8ZM1.3,8.989,8.751,15.3,1.5,20.13a1.424,1.424,0,0,1-.2-.736Zm0,0" transform="translate(45 96)"/><path class="a" d="M273.781,81.628h3.471a.648.648,0,0,0,0-1.3h-3.471a.648.648,0,1,0,0,1.3Zm0,0" transform="translate(-219.33 19.138)"/><path class="a" d="M273.781,145.9h3.471a.648.648,0,0,0,0-1.3h-3.471a.648.648,0,1,0,0,1.3Zm0,0" transform="translate(-219.33 -42.354)"/><path class="a" d="M273.781,210.164h3.471a.648.648,0,0,0,0-1.3h-3.471a.648.648,0,1,0,0,1.3Zm0,0" transform="translate(-219.33 -103.843)"/></g></svg>