<svg xmlns="http://www.w3.org/2000/svg" width="52.21" height="52.21" viewBox="0 0 52.21 52.21"><defs><style>.a{opacity:0.8;}.b{fill:#bc6c42;}</style></defs><g class="a"><path class="b" d="M26.1,0a26.1,26.1,0,1,0,26.1,26.1A26.135,26.135,0,0,0,26.1,0Zm0,48.947A22.842,22.842,0,1,1,48.947,26.1,22.869,22.869,0,0,1,26.1,48.947Z"/></g><g class="a" transform="translate(16.315 13.052)"><path class="b" d="M177.94,134.526h-1.8a8.047,8.047,0,0,0-1.508-3.263h3.306a1.632,1.632,0,0,0,0-3.263H161.624a1.632,1.632,0,0,0,0,3.263h6.526a4.886,4.886,0,0,1,4.594,3.263H161.624a1.632,1.632,0,0,0,0,3.263h11.121a4.886,4.886,0,0,1-4.594,3.263h-6.526a1.632,1.632,0,0,0-1.508,1.008,1.618,1.618,0,0,0,0,1.247,1.555,1.555,0,0,0,.356.532l13.049,13.049a1.631,1.631,0,1,0,2.31-2.3l-10.269-10.269h2.588a8.166,8.166,0,0,0,7.991-6.526h1.8a1.632,1.632,0,0,0,0-3.263Z" transform="translate(-159.992 -128)"/></g></svg>