<svg xmlns="http://www.w3.org/2000/svg" width="54.134" height="50.037" viewBox="0 0 54.134 50.037"><defs><style>.a{opacity:0.4;}</style></defs><g class="a" transform="translate(0 -18.4)"><g transform="translate(0 18.4)"><path d="M44.026,31.469a15.681,15.681,0,0,0-29.054-5.21,8.983,8.983,0,0,0-1.648-.156,8.594,8.594,0,0,0-8.583,8.583,9.382,9.382,0,0,0,.178,1.781A11.943,11.943,0,0,0,0,46.1a12.768,12.768,0,0,0,3.239,8.449,11.562,11.562,0,0,0,8.015,4.03h9.662a1.5,1.5,0,0,0,0-3.006H11.388c-4.553-.278-8.382-4.609-8.382-9.484A8.922,8.922,0,0,1,7.425,38.4a1.515,1.515,0,0,0,.657-1.826,5.453,5.453,0,0,1-.334-1.915,5.587,5.587,0,0,1,5.577-5.577,5.482,5.482,0,0,1,1.9.334,1.51,1.51,0,0,0,1.881-.768,12.674,12.674,0,0,1,24.078,4.174,1.5,1.5,0,0,0,1.247,1.336,10.833,10.833,0,0,1-1.024,21.4h-8.2a1.5,1.5,0,1,0,0,3.006h8.371a13.318,13.318,0,0,0,8.928-4.408,13.855,13.855,0,0,0-6.479-22.687Z" transform="translate(0 -18.4)"/><path d="M176.7,195.931a1.5,1.5,0,0,0,0-2.126l-7.959-7.959a1.521,1.521,0,0,0-1.058-.445,1.474,1.474,0,0,0-1.058.445l-7.959,7.959a1.508,1.508,0,0,0,1.058,2.571,1.466,1.466,0,0,0,1.058-.445l5.4-5.4v24.813a1.5,1.5,0,0,0,3.006,0V190.532l5.4,5.4A1.485,1.485,0,0,0,176.7,195.931Z" transform="translate(-140.612 -166.81)"/></g></g></svg>