<svg xmlns="http://www.w3.org/2000/svg" width="21.319" height="21.319" viewBox="0 0 21.319 21.319"><defs><style>.a{fill:#4d4f5c;}</style></defs><path class="a" d="M0,6.329H1.291V7.578H0v6.246H1.291v1.249H0v6.246H21.319V15.073H20.028V13.824h1.291V7.578H20.028V6.329h1.291V0H0ZM20.07,20.07H1.249V16.322H20.07Zm-1.291-5H2.54V13.824H18.779Zm1.291-2.5H1.249V8.827H20.07Zm-1.291-5H2.54V6.329H18.779ZM1.249,1.249H20.07V5.08H1.249Z"/><path class="a" d="M61,62h1.249v1.249H61Z" transform="translate(-58.46 -59.418)"/><path class="a" d="M121,62h1.249v1.249H121Z" transform="translate(-115.962 -59.418)"/><path class="a" d="M181,62h1.249v1.249H181Z" transform="translate(-173.463 -59.418)"/><path class="a" d="M301,62h6.246v1.249H301Z" transform="translate(-288.467 -59.418)"/><path class="a" d="M61,242h1.249v1.249H61Z" transform="translate(-58.46 -231.923)"/><path class="a" d="M121,242h1.249v1.249H121Z" transform="translate(-115.962 -231.923)"/><path class="a" d="M181,242h1.249v1.249H181Z" transform="translate(-173.463 -231.923)"/><path class="a" d="M301,242h6.246v1.249H301Z" transform="translate(-288.467 -231.923)"/><path class="a" d="M61,422h1.249v1.249H61Z" transform="translate(-58.46 -404.429)"/><path class="a" d="M121,422h1.249v1.249H121Z" transform="translate(-115.962 -404.429)"/><path class="a" d="M181,422h1.249v1.249H181Z" transform="translate(-173.463 -404.429)"/><path class="a" d="M301,422h6.246v1.249H301Z" transform="translate(-288.467 -404.429)"/></svg>