<svg xmlns="http://www.w3.org/2000/svg" width="20.482" height="25.219" viewBox="0 0 20.482 25.219"><defs><style>.a{fill:#4d4f5c;}</style></defs><g transform="translate(-347 -356)"><g transform="translate(347.003 356.001)"><path class="a" d="M222.989,154.7a.591.591,0,0,0-.591.591v11.162a.591.591,0,1,0,1.181,0V155.294A.591.591,0,0,0,222.989,154.7Zm0,0" transform="translate(-209.267 -145.568)"/><path class="a" d="M104.989,154.7a.591.591,0,0,0-.591.591v11.162a.591.591,0,1,0,1.181,0V155.294A.591.591,0,0,0,104.989,154.7Zm0,0" transform="translate(-98.236 -145.568)"/><path class="a" d="M1.674,7.507V22.058A3.258,3.258,0,0,0,2.54,24.3a2.908,2.908,0,0,0,2.11.912H15.825a2.908,2.908,0,0,0,2.11-.912,3.258,3.258,0,0,0,.866-2.247V7.507a2.256,2.256,0,0,0-.579-4.437H15.2V2.332A2.32,2.32,0,0,0,12.86,0H7.616A2.32,2.32,0,0,0,5.277,2.332V3.07H2.253a2.256,2.256,0,0,0-.579,4.437Zm14.151,16.53H4.651a1.87,1.87,0,0,1-1.8-1.979V7.558H17.62v14.5A1.87,1.87,0,0,1,15.825,24.036ZM6.458,2.332A1.138,1.138,0,0,1,7.616,1.18H12.86a1.138,1.138,0,0,1,1.158,1.152V3.07H6.458ZM2.253,4.251h15.97a1.063,1.063,0,1,1,0,2.126H2.253a1.063,1.063,0,0,1,0-2.126Zm0,0" transform="translate(0 0)"/><path class="a" d="M163.989,154.7a.591.591,0,0,0-.591.591v11.162a.591.591,0,1,0,1.181,0V155.294A.591.591,0,0,0,163.989,154.7Zm0,0" transform="translate(-153.751 -145.568)"/></g></g></svg>