<svg xmlns="http://www.w3.org/2000/svg" width="16.111" height="17.476" viewBox="0 0 16.111 17.476"><defs><style>.a{fill:#4d4f5c;}</style></defs><g transform="translate(-20)"><g transform="translate(20)"><g transform="translate(0)"><path class="a" d="M384.893,14.716l1.854,1.546a.683.683,0,1,0,.874-1.049l-1.854-1.546a.683.683,0,1,0-.874,1.049Z" transform="translate(-372.201 -13.048)"/><path class="a" d="M33.728,16.421a.68.68,0,0,0,.437-.158l1.854-1.546a.683.683,0,1,0-.874-1.049l-1.854,1.546a.683.683,0,0,0,.438,1.207Z" transform="translate(-32.6 -13.049)"/><path class="a" d="M33.751,3.725a8,8,0,0,0-5.013-2.33V.683a.683.683,0,0,0-1.365,0v.712a8.055,8.055,0,0,0-5.013,13.722,8.056,8.056,0,0,0,10.47.793.683.683,0,1,0-.81-1.1,6.681,6.681,0,1,1,1.9-2.169.683.683,0,0,0,1.2.658,8.06,8.06,0,0,0-1.365-9.575Z" transform="translate(-20)"/><path class="a" d="M220.691,151.3a.683.683,0,0,0-.96.1l-2.152,2.66a1.367,1.367,0,1,0,1.061.859l2.153-2.66A.683.683,0,0,0,220.691,151.3Z" transform="translate(-209.31 -145.988)"/></g></g></g></svg>