<svg xmlns="http://www.w3.org/2000/svg" width="26.39" height="20.992" viewBox="0 0 26.39 20.992"><defs><style>.a{fill:#4d4f5c;}</style></defs><g transform="translate(-41.278 -211)"><g transform="translate(45.677 211)"><g transform="translate(0 0)"><path class="a" d="M175.8,85.333a5.131,5.131,0,1,0,5.131,5.131A5.137,5.137,0,0,0,175.8,85.333Zm0,8.8a3.665,3.665,0,1,1,3.665-3.665A3.67,3.67,0,0,1,175.8,94.13Z" transform="translate(-170.666 -85.333)"/></g></g><g transform="translate(57.405 216.864)"><path class="a" d="M345,170.667a3.665,3.665,0,1,0,3.665,3.665A3.67,3.67,0,0,0,345,170.667Zm0,5.864a2.2,2.2,0,1,1,2.2-2.2A2.2,2.2,0,0,1,345,176.531Z" transform="translate(-341.334 -170.667)"/></g><g transform="translate(41.278 221.729)"><g transform="translate(0 0)"><path class="a" d="M116.2,256a9.541,9.541,0,0,0-9.53,9.53.733.733,0,0,0,1.466,0,8.064,8.064,0,0,1,16.127,0,.733.733,0,0,0,1.466,0A9.541,9.541,0,0,0,116.2,256Z" transform="translate(-106.666 -256)"/></g></g><g transform="translate(57.301 224.661)"><g transform="translate(0 0)"><path class="a" d="M343.583,298.667a6.6,6.6,0,0,0-3.417.953.733.733,0,0,0,.761,1.254,5.132,5.132,0,0,1,7.788,4.391.733.733,0,0,0,1.466,0A6.606,6.606,0,0,0,343.583,298.667Z" transform="translate(-339.813 -298.667)"/></g></g></g></svg>